<svg width="48" height="48" viewBox="0 0 48 48" fill="none" xmlns="http://www.w3.org/2000/svg">
<path d="M38.6663 33.6613C38.6663 33.2674 38.5887 32.8773 38.438 32.5134C38.2872 32.1495 38.0662 31.8189 37.7876 31.5404C37.509 31.262 37.1783 31.0411 36.8143 30.8905C36.4503 30.7399 36.0602 30.6624 35.6663 30.6626H20.333C19.939 30.6624 19.5488 30.7399 19.1848 30.8906C18.8207 31.0413 18.4899 31.2623 18.2113 31.5409C17.9327 31.8195 17.7117 32.1503 17.561 32.5144C17.4103 32.8784 17.3328 33.2686 17.333 33.6626V34.8893C17.333 35.6506 17.5703 36.3946 18.013 37.016C20.0703 39.9013 23.433 41.3306 27.9943 41.3306C32.5543 41.3306 35.921 39.9026 37.981 37.0173C38.4257 36.3962 38.6653 35.6518 38.6663 34.888V33.6626V33.6613ZM34.6623 21.336C34.6625 19.9319 34.2194 18.5636 33.3961 17.4262C32.5729 16.2889 31.4116 15.4404 30.0777 15.0019C28.7439 14.5634 27.3057 14.5572 25.9681 14.9843C24.6306 15.4113 23.462 16.2497 22.629 17.38C22.5324 17.3494 22.4317 17.3336 22.3303 17.3333H18.9997C18.7345 17.3333 18.4801 17.4386 18.2926 17.6262C18.105 17.8137 17.9997 18.0681 17.9997 18.3333V25.664C17.9993 26.1457 18.0939 26.6228 18.278 27.0679C18.4621 27.5131 18.7322 27.9176 19.0727 28.2584C19.4132 28.5992 19.8175 28.8695 20.2626 29.0539C20.7076 29.2384 21.1846 29.3333 21.6663 29.3333H21.9997V29.328H22.013C22.2389 29.3283 22.4612 29.2711 22.6589 29.1618C22.8566 29.0526 23.0232 28.8947 23.143 28.7032C23.2629 28.5118 23.332 28.2929 23.3439 28.0673C23.3558 27.8417 23.31 27.6168 23.211 27.4138C23.1119 27.2108 22.9628 27.0363 22.7777 26.9069C22.5926 26.7774 22.3776 26.6972 22.1529 26.6738C21.9282 26.6504 21.7013 26.6846 21.4934 26.7731C21.2856 26.8617 21.1038 27.0017 20.965 27.18C20.6763 27.046 20.4319 26.8322 20.2608 26.5638C20.0898 26.2954 19.9992 25.9836 19.9997 25.6653V25.3333H20.997C21.5037 25.3333 21.9743 25.1706 22.357 24.896C23.1282 26.1186 24.2759 27.0574 25.6271 27.571C26.9783 28.0846 28.4598 28.1451 29.8484 27.7433C31.237 27.3416 32.4574 26.4995 33.3257 25.3438C34.1939 24.1881 34.6631 22.7815 34.6623 21.336ZM21.329 21.1946C21.3271 21.2888 21.3271 21.3831 21.329 21.4773V22.9986C21.329 23.087 21.2939 23.1718 21.2314 23.2343C21.1689 23.2968 21.0841 23.332 20.9957 23.332H19.9997V19.3346H21.3303V21.1946H21.329Z" fill="#EDBD4D"/>
</svg>
