<svg width="48" height="48" viewBox="0 0 48 48" fill="none" xmlns="http://www.w3.org/2000/svg">
<path d="M18.667 17.3334H22.667V20.944C22.0528 20.6756 21.372 20.5985 20.7134 20.7229C20.0547 20.8473 19.4489 21.1674 18.975 21.6413C18.501 22.1153 18.1809 22.7211 18.0565 23.3797C17.9322 24.0384 18.0092 24.7192 18.2777 25.3334H14.667V21.3334C14.667 20.2725 15.0884 19.2551 15.8386 18.5049C16.5887 17.7548 17.6061 17.3334 18.667 17.3334ZM14.667 31.3334V27.3334H21.2537L18.9603 29.6267C18.8621 29.7183 18.7833 29.8287 18.7286 29.9513C18.674 30.074 18.6446 30.2064 18.6422 30.3407C18.6398 30.4749 18.6645 30.6083 18.7148 30.7328C18.7651 30.8574 18.84 30.9705 18.9349 31.0654C19.0299 31.1604 19.143 31.2352 19.2675 31.2855C19.392 31.3358 19.5254 31.3605 19.6597 31.3582C19.794 31.3558 19.9264 31.3264 20.049 31.2717C20.1717 31.2171 20.2821 31.1383 20.3737 31.04L22.667 28.7467V35.3334H18.667C17.6061 35.3334 16.5887 34.9119 15.8386 34.1618C15.0884 33.4117 14.667 32.3942 14.667 31.3334ZM24.667 35.3334H34.0003C35.0612 35.3334 36.0786 34.9119 36.8288 34.1618C37.5789 33.4117 38.0003 32.3942 38.0003 31.3334V27.3334H26.0803L28.3737 29.6267C28.4719 29.7183 28.5507 29.8287 28.6054 29.9513C28.66 30.074 28.6894 30.2064 28.6918 30.3407C28.6942 30.4749 28.6695 30.6083 28.6192 30.7328C28.5689 30.8574 28.494 30.9705 28.399 31.0654C28.3041 31.1604 28.191 31.2352 28.0665 31.2855C27.9419 31.3358 27.8086 31.3605 27.6743 31.3582C27.54 31.3558 27.4076 31.3264 27.2849 31.2717C27.1623 31.2171 27.0519 31.1383 26.9603 31.04L24.667 28.7467V35.3334ZM29.0563 25.3334H38.0003V21.3334C38.0003 20.2725 37.5789 19.2551 36.8288 18.5049C36.0786 17.7548 35.0612 17.3334 34.0003 17.3334H24.667V20.944C25.2812 20.6756 25.962 20.5985 26.6206 20.7229C27.2792 20.8473 27.8851 21.1674 28.359 21.6413C28.833 22.1153 29.153 22.7211 29.2774 23.3797C29.4018 24.0384 29.3248 24.7192 29.0563 25.3334ZM26.0003 25.3334H24.667V24C24.667 23.7363 24.7452 23.4785 24.8917 23.2593C25.0382 23.04 25.2464 22.8691 25.4901 22.7682C25.7337 22.6673 26.0018 22.6409 26.2604 22.6923C26.5191 22.7438 26.7567 22.8708 26.9431 23.0572C27.1296 23.2437 27.2566 23.4813 27.308 23.7399C27.3595 23.9986 27.3331 24.2667 27.2322 24.5103C27.1312 24.7539 26.9604 24.9622 26.7411 25.1087C26.5218 25.2552 26.264 25.3334 26.0003 25.3334ZM21.3337 25.3334H22.667V23.9894C22.6649 23.7261 22.5849 23.4694 22.4371 23.2515C22.2893 23.0337 22.0804 22.8644 21.8366 22.7652C21.5927 22.6659 21.325 22.641 21.0671 22.6936C20.8091 22.7463 20.5725 22.8741 20.3871 23.061C20.2017 23.2479 20.0758 23.4855 20.0252 23.7438C19.9746 24.0022 20.0017 24.2697 20.1029 24.5127C20.2041 24.7557 20.375 24.9633 20.594 25.1094C20.813 25.2554 21.0704 25.3334 21.3337 25.3334ZM22.0003 38.6667C21.298 38.6669 20.6079 38.4822 19.9996 38.1311C19.3913 37.78 18.8862 37.275 18.535 36.6667H34.0003C35.4148 36.6667 36.7714 36.1048 37.7716 35.1046C38.7718 34.1044 39.3337 32.7479 39.3337 31.3334V21.2014C39.942 21.5524 40.4472 22.0576 40.7982 22.6659C41.1493 23.2742 41.334 23.9643 41.3337 24.6667V31.3334C41.3337 32.2964 41.144 33.25 40.7754 34.1397C40.4069 35.0294 39.8667 35.8379 39.1858 36.5188C38.5048 37.1998 37.6964 37.74 36.8067 38.1085C35.917 38.477 34.9634 38.6667 34.0003 38.6667H22.0003Z" fill="#EDBD4D"/>
</svg>
