<svg width="48" height="48" viewBox="0 0 48 48" fill="none" xmlns="http://www.w3.org/2000/svg">
<path d="M22.667 20V17.3333C22.667 16.6 22.9283 15.972 23.451 15.4493C23.9728 14.9275 24.6003 14.6666 25.3337 14.6666H30.667C31.4003 14.6666 32.0283 14.9275 32.551 15.4493C33.0728 15.972 33.3337 16.6 33.3337 17.3333V20H38.667C39.4003 20 40.0283 20.2613 40.551 20.784C41.0728 21.3057 41.3337 21.9333 41.3337 22.6666V29.3333H32.0003V26.6666H24.0003V29.3333H14.667V22.6666C14.667 21.9333 14.9283 21.3057 15.451 20.784C15.9728 20.2613 16.6003 20 17.3337 20H22.667ZM25.3337 20H30.667V17.3333H25.3337V20ZM26.667 32V29.3333H29.3337V32H26.667ZM14.667 32H24.0003V34.6666H32.0003V32H41.3337V37.3333C41.3337 38.0666 41.0728 38.6946 40.551 39.2173C40.0283 39.7391 39.4003 40 38.667 40H17.3337C16.6003 40 15.9728 39.7391 15.451 39.2173C14.9283 38.6946 14.667 38.0666 14.667 37.3333V32Z" fill="#EDBD4D"/>
</svg>
