<svg width="48" height="48" viewBox="0 0 48 48" fill="none" xmlns="http://www.w3.org/2000/svg">
<path d="M25.1148 14.712C25.2642 14.7627 25.4108 14.824 25.5535 14.8934L27.2642 15.736C27.4931 15.8487 27.7449 15.9074 28.0002 15.9074C28.2554 15.9074 28.5072 15.8487 28.7362 15.736L30.4468 14.8934C31.3192 14.4643 32.3264 14.3992 33.2467 14.7125C34.1671 15.0258 34.9254 15.6918 35.3548 16.564L35.4535 16.78L35.5375 17.0027L36.1508 18.8067C36.3175 19.2974 36.7028 19.6814 37.1922 19.848L38.9975 20.4614C39.4913 20.6294 39.9436 20.9008 40.3242 21.2576C40.7047 21.6143 41.0048 22.0482 41.2043 22.5301C41.4038 23.0121 41.4982 23.5311 41.4812 24.0524C41.4641 24.5738 41.3361 25.0855 41.1055 25.5534L40.2642 27.264C40.1515 27.493 40.0928 27.7448 40.0928 28C40.0928 28.2553 40.1515 28.5071 40.2642 28.736L41.1055 30.4467C41.3358 30.9146 41.4637 31.4261 41.4806 31.9473C41.4976 32.4685 41.4031 32.9873 41.2036 33.4691C41.0041 33.9509 40.7041 34.3846 40.3237 34.7413C39.9433 35.0979 39.4911 35.3693 38.9975 35.5374L37.1922 36.1507C36.9507 36.2331 36.7313 36.3698 36.551 36.5504C36.3707 36.7309 36.2342 36.9504 36.1522 37.192L35.5375 38.9974C35.3695 39.491 35.098 39.9432 34.7414 40.3236C34.3847 40.704 33.951 41.004 33.4692 41.2035C32.9874 41.403 32.4686 41.4975 31.9475 41.4805C31.4263 41.4636 30.9147 41.3357 30.4468 41.1054L28.7362 40.264C28.5072 40.1513 28.2554 40.0927 28.0002 40.0927C27.7449 40.0927 27.4931 40.1513 27.2642 40.264L25.5535 41.1054C25.0857 41.3357 24.5741 41.4636 24.0529 41.4805C23.5317 41.4975 23.0129 41.403 22.5311 41.2035C22.0493 41.004 21.6156 40.704 21.2589 40.3236C20.9023 39.9432 20.6309 39.491 20.4628 38.9974L19.8495 37.192C19.767 36.9504 19.63 36.731 19.4493 36.5506C19.2685 36.3703 19.0487 36.2339 18.8068 36.152L17.0028 35.5374C16.5091 35.3695 16.0568 35.0982 15.6762 34.7416C15.2956 34.385 14.9955 33.9513 14.7959 33.4695C14.5962 32.9877 14.5017 32.4688 14.5185 31.9476C14.5353 31.4263 14.6632 30.9146 14.8935 30.4467L15.7362 28.736C15.8489 28.5071 15.9075 28.2553 15.9075 28C15.9075 27.7448 15.8489 27.493 15.7362 27.264L14.8935 25.5534C14.6632 25.0855 14.5353 24.5738 14.5185 24.0525C14.5017 23.5313 14.5962 23.0124 14.7959 22.5306C14.9955 22.0488 15.2956 21.6151 15.6762 21.2585C16.0568 20.9019 16.5091 20.6306 17.0028 20.4627L18.8068 19.8494C19.0487 19.767 19.2684 19.6302 19.449 19.4494C19.6296 19.2686 19.7661 19.0487 19.8482 18.8067L20.4615 17.0027C20.6165 16.5467 20.8599 16.1257 21.1777 15.7638C21.4955 15.4018 21.8815 15.1061 22.3136 14.8933C22.7457 14.6806 23.2155 14.5551 23.6962 14.524C24.1768 14.4929 24.6589 14.5568 25.1148 14.712ZM32.6255 23.9587L25.4002 31.1854L22.7682 28.0254C22.6853 27.9209 22.5823 27.8341 22.4654 27.77C22.3485 27.7059 22.2199 27.6659 22.0873 27.6522C21.9546 27.6385 21.8206 27.6515 21.6931 27.6904C21.5655 27.7293 21.447 27.7934 21.3446 27.8787C21.2422 27.9641 21.1578 28.0691 21.0966 28.1875C21.0353 28.3059 20.9984 28.4354 20.9879 28.5684C20.9774 28.7013 20.9936 28.835 21.0356 28.9615C21.0775 29.0881 21.1444 29.205 21.2322 29.3054L24.5655 33.3054C24.6544 33.4121 24.7645 33.4991 24.8889 33.5609C25.0132 33.6227 25.1491 33.658 25.2878 33.6644C25.4266 33.6708 25.5651 33.6482 25.6946 33.5981C25.8242 33.548 25.9418 33.4715 26.0402 33.3734L34.0402 25.3734C34.1384 25.2818 34.2172 25.1714 34.2719 25.0488C34.3265 24.9261 34.3559 24.7937 34.3583 24.6594C34.3607 24.5251 34.336 24.3918 34.2857 24.2672C34.2354 24.1427 34.1605 24.0296 34.0655 23.9347C33.9706 23.8397 33.8575 23.7648 33.733 23.7145C33.6084 23.6643 33.4751 23.6396 33.3408 23.6419C33.2065 23.6443 33.0741 23.6737 32.9514 23.7283C32.8288 23.783 32.7184 23.8618 32.6268 23.96L32.6255 23.9587Z" fill="#EDBD4D"/>
</svg>
