<svg width="48" height="48" viewBox="0 0 48 48" fill="none" xmlns="http://www.w3.org/2000/svg">
<path d="M26.624 15.1C27.0235 14.8083 27.5053 14.6511 28 14.6511C28.4947 14.6511 28.9765 14.8083 29.376 15.1L39.2707 22.3214C40.5733 23.2707 39.9027 25.3307 38.292 25.3347H17.7067C16.096 25.3307 15.4267 23.2707 16.728 22.3214L26.6227 15.1H26.624ZM29.3333 20.3334C29.3333 19.9797 29.1929 19.6406 28.9428 19.3906C28.6928 19.1405 28.3536 19 28 19C27.6464 19 27.3072 19.1405 27.0572 19.3906C26.8071 19.6406 26.6667 19.9797 26.6667 20.3334C26.6667 20.687 26.8071 21.0261 27.0572 21.2762C27.3072 21.5262 27.6464 21.6667 28 21.6667C28.3536 21.6667 28.6928 21.5262 28.9428 21.2762C29.1929 21.0261 29.3333 20.687 29.3333 20.3334ZM27 33.3334H24.3333V26.6667H27V33.3334ZM31.6667 33.3334H29V26.6667H31.6667V33.3334ZM36.6667 33.3334H33.6667V26.6667H36.6667V33.3334ZM37 34.6667H19C18.2044 34.6667 17.4413 34.9828 16.8787 35.5454C16.3161 36.108 16 36.871 16 37.6667V38.3334C16 38.8867 16.448 39.3334 17 39.3334H39C39.2652 39.3334 39.5196 39.228 39.7071 39.0405C39.8946 38.8529 40 38.5986 40 38.3334V37.6667C40 36.871 39.6839 36.108 39.1213 35.5454C38.5587 34.9828 37.7957 34.6667 37 34.6667ZM22.3333 33.3334H19.3333V26.6667H22.3333V33.3334Z" fill="#EDBD4D"/>
</svg>
