<svg width="48" height="48" viewBox="0 0 48 48" fill="none" xmlns="http://www.w3.org/2000/svg">
<path fill-rule="evenodd" clip-rule="evenodd" d="M18.0003 17.3334C17.1163 17.3334 16.2684 17.6846 15.6433 18.3097C15.0182 18.9348 14.667 19.7827 14.667 20.6667V27.3334C14.667 28.2174 15.0182 29.0653 15.6433 29.6904C16.2684 30.3155 17.1163 30.6667 18.0003 30.6667V20.6667H34.667C34.667 19.7827 34.3158 18.9348 33.6907 18.3097C33.0656 17.6846 32.2177 17.3334 31.3337 17.3334H18.0003ZM21.3337 27.3334C21.3337 26.4493 21.6848 25.6015 22.31 24.9764C22.9351 24.3512 23.7829 24 24.667 24H38.0003C38.8844 24 39.7322 24.3512 40.3573 24.9764C40.9825 25.6015 41.3337 26.4493 41.3337 27.3334V34C41.3337 34.8841 40.9825 35.7319 40.3573 36.3571C39.7322 36.9822 38.8844 37.3334 38.0003 37.3334H24.667C23.7829 37.3334 22.9351 36.9822 22.31 36.3571C21.6848 35.7319 21.3337 34.8841 21.3337 34V27.3334ZM31.3337 34C32.2177 34 33.0656 33.6488 33.6907 33.0237C34.3158 32.3986 34.667 31.5508 34.667 30.6667C34.667 29.7827 34.3158 28.9348 33.6907 28.3097C33.0656 27.6846 32.2177 27.3334 31.3337 27.3334C30.4496 27.3334 29.6018 27.6846 28.9766 28.3097C28.3515 28.9348 28.0003 29.7827 28.0003 30.6667C28.0003 31.5508 28.3515 32.3986 28.9766 33.0237C29.6018 33.6488 30.4496 34 31.3337 34Z" fill="#EDBD4D"/>
</svg>
