<svg width="120" height="35" viewBox="0 0 120 35" fill="none" xmlns="http://www.w3.org/2000/svg">
<path d="M119.334 30.6687C119.334 32.5162 117.806 34.0126 115.917 34.0126H4.08861C2.19999 34.0126 0.666992 32.5162 0.666992 30.6687V4.00236C0.666992 2.1558 2.19999 0.654114 4.08861 0.654114H115.916C117.806 0.654114 119.333 2.1558 119.333 4.00236L119.334 30.6687Z" fill="black"/>
<path d="M115.556 0.694435C117.613 0.694435 119.288 2.32702 119.288 4.33335V30.3334C119.288 32.3397 117.613 33.9723 115.556 33.9723H4.44444C2.38667 33.9723 0.712222 32.3397 0.712222 30.3334V4.33335C0.712222 2.32702 2.38667 0.694435 4.44444 0.694435H115.556ZM115.556 1.90735e-05H4.44444C2.00111 1.90735e-05 0 1.9511 0 4.33335V30.3334C0 32.7156 2.00111 34.6667 4.44444 34.6667H115.556C117.999 34.6667 120 32.7156 120 30.3334V4.33335C120 1.9511 117.999 1.90735e-05 115.556 1.90735e-05Z" fill="#A6A6A6"/>
<path d="M26.78 17.1461C26.7542 14.3529 29.1258 12.9939 29.2342 12.9307C27.8911 11.0214 25.8093 10.7605 25.0778 10.7397C23.3293 10.5603 21.6333 11.7598 20.7426 11.7598C19.8342 11.7598 18.4626 10.7571 16.9844 10.7865C15.0822 10.8151 13.3026 11.8889 12.3266 13.5564C10.3124 16.9563 11.8146 21.9527 13.7444 24.7009C14.7098 26.0468 15.8378 27.5496 17.3142 27.4967C18.7586 27.4387 19.2982 26.5989 21.0413 26.5989C22.7684 26.5989 23.2751 27.4967 24.7809 27.4629C26.3311 27.4387 27.3071 26.1109 28.2386 24.7529C29.3542 23.2102 29.8022 21.6909 29.82 21.6129C29.7835 21.6008 26.8093 20.4941 26.78 17.1461Z" fill="white"/>
<path d="M23.9355 8.93186C24.7124 7.98459 25.244 6.69586 25.0964 5.38806C23.972 5.43659 22.5658 6.1464 21.756 7.07286C21.0395 7.88926 20.3995 9.22739 20.5649 10.4858C21.828 10.5777 23.1249 9.86439 23.9355 8.93186Z" fill="white"/>
<path d="M43.6001 8.67449C43.6001 9.69456 43.2864 10.4624 42.6597 10.9781C42.0792 11.4539 41.2544 11.6922 40.1859 11.6922C39.6561 11.6922 39.2028 11.6697 38.8232 11.6246V6.05109C39.3184 5.97309 39.8517 5.93323 40.4277 5.93323C41.4455 5.93323 42.2126 6.14903 42.7299 6.58063C43.3095 7.06856 43.6001 7.76623 43.6001 8.67449ZM42.6179 8.69963C42.6179 8.03836 42.4384 7.53136 42.0792 7.17776C41.7201 6.82503 41.1957 6.64823 40.505 6.64823C40.2117 6.64823 39.9619 6.66729 39.7548 6.70716V10.9443C39.8695 10.9616 40.0792 10.9694 40.3841 10.9694C41.097 10.9694 41.6472 10.7762 42.0348 10.3896C42.4224 10.0031 42.6179 9.43976 42.6179 8.69963Z" fill="white"/>
<path d="M48.8081 9.5654C48.8081 10.1937 48.6241 10.7085 48.2561 11.1124C47.8703 11.5275 47.3592 11.7347 46.721 11.7347C46.1059 11.7347 45.6161 11.5362 45.2508 11.1375C44.8863 10.7397 44.7041 10.2379 44.7041 9.633C44.7041 9.00033 44.8917 8.4812 45.2685 8.0782C45.6454 7.6752 46.1521 7.47327 46.7903 7.47327C47.4054 7.47327 47.8997 7.67173 48.2739 8.06953C48.6294 8.45607 48.8081 8.95527 48.8081 9.5654ZM47.8419 9.59487C47.8419 9.21787 47.7583 8.8946 47.5921 8.62507C47.3965 8.2992 47.1183 8.13627 46.7565 8.13627C46.3823 8.13627 46.0979 8.2992 45.9023 8.62507C45.7352 8.8946 45.6525 9.22307 45.6525 9.61133C45.6525 9.98833 45.7361 10.3116 45.9023 10.5811C46.1041 10.907 46.385 11.0699 46.7477 11.0699C47.1032 11.0699 47.3823 10.9044 47.5832 10.5725C47.7557 10.2977 47.8419 9.97187 47.8419 9.59487Z" fill="white"/>
<path d="M55.7908 7.55646L54.4797 11.6419H53.6264L53.0833 9.86786C52.9455 9.42499 52.8335 8.98472 52.7464 8.54792H52.7295C52.6486 8.99686 52.5366 9.43626 52.3926 9.86786L51.8157 11.6419H50.9526L49.7197 7.55646H50.6771L51.1508 9.49866C51.2655 9.95799 51.3597 10.3957 51.4353 10.8099H51.4522C51.5215 10.4685 51.6362 10.0334 51.7979 9.50732L52.3926 7.55732H53.1517L53.7215 9.46572C53.8593 9.93112 53.9713 10.3792 54.0575 10.8108H54.0833C54.1464 10.3905 54.2415 9.94239 54.3677 9.46572L54.8762 7.55732H55.7908V7.55646Z" fill="white"/>
<path d="M60.6201 11.642H59.6886V9.30197C59.6886 8.5809 59.4077 8.22037 58.8441 8.22037C58.5677 8.22037 58.3446 8.31917 58.1713 8.51764C57.9997 8.7161 57.9126 8.9501 57.9126 9.2179V11.6411H56.981V8.7239C56.981 8.3651 56.9695 7.97597 56.9473 7.55477H57.7659L57.8095 8.1935H57.8353C57.9437 7.99504 58.1055 7.83124 58.3179 7.70037C58.5704 7.54784 58.853 7.4707 59.1624 7.4707C59.5535 7.4707 59.8788 7.59377 60.1375 7.84077C60.4593 8.14324 60.6201 8.59477 60.6201 9.1945V11.642Z" fill="white"/>
<path d="M63.1894 11.642H62.2588V5.68188H63.1894V11.642Z" fill="white"/>
<path d="M68.6743 9.5654C68.6743 10.1937 68.4903 10.7085 68.1223 11.1124C67.7365 11.5275 67.2245 11.7347 66.5872 11.7347C65.9712 11.7347 65.4814 11.5362 65.117 11.1375C64.7525 10.7397 64.5703 10.2379 64.5703 9.633C64.5703 9.00033 64.7579 8.4812 65.1348 8.0782C65.5116 7.6752 66.0183 7.47327 66.6556 7.47327C67.2716 7.47327 67.765 7.67173 68.1401 8.06953C68.4956 8.45607 68.6743 8.95527 68.6743 9.5654ZM67.7072 9.59487C67.7072 9.21787 67.6236 8.8946 67.4574 8.62507C67.2628 8.2992 66.9836 8.13627 66.6228 8.13627C66.2476 8.13627 65.9632 8.2992 65.7685 8.62507C65.6014 8.8946 65.5188 9.22307 65.5188 9.61133C65.5188 9.98833 65.6023 10.3116 65.7685 10.5811C65.9703 10.907 66.2512 11.0699 66.6139 11.0699C66.9694 11.0699 67.2476 10.9044 67.4485 10.5725C67.6219 10.2977 67.7072 9.97187 67.7072 9.59487Z" fill="white"/>
<path d="M73.1822 11.6419H72.3457L72.2764 11.1713H72.2506C71.9644 11.5466 71.5564 11.7347 71.0266 11.7347C70.6311 11.7347 70.3111 11.6107 70.0702 11.3646C69.8515 11.141 69.7422 10.8628 69.7422 10.5326C69.7422 10.0334 69.9555 9.65293 70.3849 9.38947C70.8133 9.126 71.416 8.99687 72.192 9.00293V8.92667C72.192 8.38847 71.9022 8.1198 71.3217 8.1198C70.9084 8.1198 70.544 8.2212 70.2293 8.42227L70.04 7.826C70.4293 7.59113 70.9102 7.47327 71.4773 7.47327C72.5724 7.47327 73.1217 8.0366 73.1217 9.16327V10.6678C73.1217 11.076 73.1422 11.401 73.1822 11.6419ZM72.2151 10.2379V9.60787C71.1875 9.59053 70.6737 9.86527 70.6737 10.4312C70.6737 10.6444 70.7324 10.8039 70.8524 10.9105C70.9724 11.0171 71.1253 11.0699 71.3075 11.0699C71.512 11.0699 71.7031 11.0067 71.8773 10.881C72.0524 10.7545 72.16 10.5941 72.2 10.3974C72.2097 10.3532 72.2151 10.2995 72.2151 10.2379Z" fill="white"/>
<path d="M78.4756 11.642H77.6489L77.6054 10.9859H77.5796C77.3156 11.4851 76.8658 11.7347 76.2338 11.7347C75.7289 11.7347 75.3085 11.5414 74.9751 11.1549C74.6418 10.7684 74.4756 10.2666 74.4756 9.65035C74.4756 8.98908 74.656 8.45348 75.0187 8.04442C75.3698 7.66308 75.8 7.47242 76.312 7.47242C76.8747 7.47242 77.2685 7.65702 77.4925 8.02708H77.5102V5.68188H78.4427V10.5413C78.4427 10.9391 78.4534 11.3057 78.4756 11.642ZM77.5102 9.91902V9.23782C77.5102 9.11995 77.5014 9.02462 77.4845 8.95182C77.432 8.73342 77.3191 8.54969 77.1476 8.40148C76.9742 8.25328 76.7654 8.17875 76.5245 8.17875C76.1769 8.17875 75.9049 8.31308 75.7049 8.58262C75.5067 8.85215 75.4062 9.19622 75.4062 9.61655C75.4062 10.0204 75.5014 10.348 75.6925 10.6002C75.8942 10.8689 76.1662 11.0032 76.5067 11.0032C76.8125 11.0032 77.0569 10.8914 77.2427 10.667C77.4222 10.4598 77.5102 10.2102 77.5102 9.91902Z" fill="white"/>
<path d="M86.4429 9.5654C86.4429 10.1937 86.2589 10.7085 85.8909 11.1124C85.5051 11.5275 84.9949 11.7347 84.3558 11.7347C83.7415 11.7347 83.2518 11.5362 82.8855 11.1375C82.5211 10.7397 82.3389 10.2379 82.3389 9.633C82.3389 9.00033 82.5264 8.4812 82.9033 8.0782C83.2802 7.6752 83.7869 7.47327 84.426 7.47327C85.0402 7.47327 85.5353 7.67173 85.9086 8.06953C86.2642 8.45607 86.4429 8.95527 86.4429 9.5654ZM85.4775 9.59487C85.4775 9.21787 85.394 8.8946 85.2278 8.62507C85.0313 8.2992 84.754 8.13627 84.3913 8.13627C84.018 8.13627 83.7335 8.2992 83.5371 8.62507C83.37 8.8946 83.2873 9.22307 83.2873 9.61133C83.2873 9.98833 83.3709 10.3116 83.5371 10.5811C83.7389 10.907 84.0198 11.0699 84.3824 11.0699C84.738 11.0699 85.018 10.9044 85.2189 10.5725C85.3904 10.2977 85.4775 9.97187 85.4775 9.59487Z" fill="white"/>
<path d="M91.4513 11.642H90.5206V9.30197C90.5206 8.5809 90.2397 8.22037 89.6753 8.22037C89.3989 8.22037 89.1757 8.31917 89.0033 8.51764C88.8308 8.7161 88.7446 8.9501 88.7446 9.2179V11.6411H87.8122V8.7239C87.8122 8.3651 87.8015 7.97597 87.7793 7.55477H88.5971L88.6406 8.1935H88.6664C88.7757 7.99504 88.9375 7.83124 89.1491 7.70037C89.4024 7.54784 89.6842 7.4707 89.9944 7.4707C90.3846 7.4707 90.71 7.59377 90.9686 7.84077C91.2913 8.14324 91.4513 8.59477 91.4513 9.1945V11.642Z" fill="white"/>
<path d="M97.7209 8.2368H96.6952V10.2215C96.6952 10.7259 96.8774 10.9781 97.2383 10.9781C97.4054 10.9781 97.5441 10.9642 97.6534 10.9356L97.6774 11.6246C97.4934 11.6922 97.2516 11.726 96.9538 11.726C96.5858 11.726 96.2996 11.6168 96.0925 11.3984C95.8845 11.18 95.7814 10.8125 95.7814 10.2969V8.2368H95.1689V7.55647H95.7814V6.80767L96.6943 6.539V7.5556H97.7201V8.2368H97.7209Z" fill="white"/>
<path d="M102.653 11.642H101.72V9.31929C101.72 8.58695 101.439 8.22035 100.877 8.22035C100.445 8.22035 100.15 8.43268 99.9879 8.85735C99.9603 8.94662 99.9443 9.05582 99.9443 9.18408V11.6411H99.0137V5.68188H99.9443V8.14408H99.9621C100.255 7.69602 100.676 7.47242 101.221 7.47242C101.607 7.47242 101.926 7.59548 102.179 7.84248C102.495 8.15015 102.653 8.60775 102.653 9.21268V11.642Z" fill="white"/>
<path d="M107.74 9.40592C107.74 9.56885 107.728 9.70579 107.705 9.81759H104.912C104.924 10.2215 105.057 10.5291 105.316 10.7423C105.552 10.933 105.857 11.0283 106.231 11.0283C106.644 11.0283 107.021 10.9642 107.36 10.8351L107.506 11.466C107.109 11.6341 106.641 11.7182 106.1 11.7182C105.451 11.7182 104.94 11.5319 104.57 11.1592C104.199 10.7865 104.015 10.2865 104.015 9.65899C104.015 9.04279 104.186 8.52972 104.532 8.12065C104.893 7.68385 105.381 7.46545 105.997 7.46545C106.6 7.46545 107.057 7.68385 107.367 8.12065C107.616 8.46732 107.74 8.89632 107.74 9.40592ZM106.851 9.17105C106.858 8.90152 106.797 8.66925 106.671 8.47339C106.509 8.22119 106.263 8.09465 105.929 8.09465C105.625 8.09465 105.377 8.21772 105.188 8.46472C105.033 8.66145 104.942 8.89632 104.912 9.17105H106.851Z" fill="white"/>
<path d="M47.6849 27.3035H45.6662L44.5605 23.9157H40.7169L39.6636 27.3035H37.6982L41.5062 15.7699H43.8582L47.6849 27.3035ZM44.2271 22.4944L43.2271 19.4827C43.1214 19.175 42.9231 18.4505 42.6307 17.31H42.5951C42.4787 17.8005 42.2911 18.525 42.0334 19.4827L41.0511 22.4944H44.2271Z" fill="white"/>
<path d="M57.4779 23.043C57.4779 24.4574 57.0859 25.5754 56.3019 26.3961C55.5997 27.1267 54.7277 27.4916 53.6868 27.4916C52.5632 27.4916 51.7561 27.0981 51.2646 26.3112H51.229V30.6922H49.3339V21.7248C49.3339 20.8356 49.3099 19.923 49.2637 18.987H50.9303L51.0361 20.3052H51.0717C51.7037 19.312 52.6628 18.8162 53.9499 18.8162C54.9561 18.8162 55.7961 19.2036 56.4681 19.9793C57.1419 20.7558 57.4779 21.7768 57.4779 23.043ZM55.5472 23.1106C55.5472 22.3011 55.3606 21.6338 54.9854 21.1086C54.5757 20.5608 54.0254 20.287 53.3357 20.287C52.8681 20.287 52.4432 20.4395 52.0637 20.7402C51.6832 21.0436 51.4343 21.4396 51.3179 21.9302C51.2592 22.159 51.2299 22.3462 51.2299 22.4935V23.8802C51.2299 24.4851 51.4201 24.9956 51.8006 25.4124C52.181 25.8293 52.6752 26.0373 53.2832 26.0373C53.997 26.0373 54.5526 25.7686 54.9499 25.233C55.3481 24.6966 55.5472 23.9894 55.5472 23.1106Z" fill="white"/>
<path d="M67.2885 23.043C67.2885 24.4574 66.8965 25.5754 66.1116 26.3961C65.4103 27.1267 64.5383 27.4916 63.4974 27.4916C62.3739 27.4916 61.5668 27.0981 61.0761 26.3112H61.0405V30.6922H59.1454V21.7248C59.1454 20.8356 59.1214 19.923 59.0752 18.987H60.7419L60.8476 20.3052H60.8832C61.5143 19.312 62.4734 18.8162 63.7614 18.8162C64.7668 18.8162 65.6068 19.2036 66.2805 19.9793C66.9516 20.7558 67.2885 21.7768 67.2885 23.043ZM65.3579 23.1106C65.3579 22.3011 65.1703 21.6338 64.7952 21.1086C64.3854 20.5608 63.837 20.287 63.1463 20.287C62.6779 20.287 62.2539 20.4395 61.8734 20.7402C61.493 21.0436 61.245 21.4396 61.1285 21.9302C61.0707 22.159 61.0405 22.3462 61.0405 22.4935V23.8802C61.0405 24.4851 61.2308 24.9956 61.6094 25.4124C61.9899 25.8284 62.4841 26.0373 63.0939 26.0373C63.8076 26.0373 64.3632 25.7686 64.7605 25.233C65.1588 24.6966 65.3579 23.9894 65.3579 23.1106Z" fill="white"/>
<path d="M78.2576 24.0691C78.2576 25.0502 77.9083 25.8484 77.2069 26.4646C76.4363 27.138 75.3634 27.4742 73.9847 27.4742C72.7118 27.4742 71.6914 27.235 70.9189 26.7558L71.3581 25.2157C72.1901 25.7062 73.1029 25.9524 74.0976 25.9524C74.8114 25.9524 75.3669 25.7946 75.7661 25.4809C76.1634 25.1672 76.3616 24.746 76.3616 24.2208C76.3616 23.7528 76.1981 23.3584 75.8701 23.0386C75.5438 22.7188 74.9989 22.4216 74.2381 22.1468C72.1669 21.3937 71.1323 20.2904 71.1323 18.8396C71.1323 17.8915 71.4949 17.1141 72.2212 16.5092C72.9447 15.9034 73.9101 15.6009 75.1172 15.6009C76.1936 15.6009 77.0878 15.7838 77.8016 16.1486L77.3278 17.6549C76.6612 17.3013 75.9074 17.1245 75.0638 17.1245C74.3972 17.1245 73.8763 17.2848 73.5029 17.6038C73.1874 17.8889 73.0292 18.2364 73.0292 18.6481C73.0292 19.104 73.2096 19.481 73.5723 19.7774C73.8878 20.0512 74.4612 20.3476 75.2932 20.6674C76.3109 21.067 77.0585 21.5341 77.5394 22.0697C78.0185 22.6036 78.2576 23.2718 78.2576 24.0691Z" fill="white"/>
<path d="M84.5228 20.3736H82.4339V24.4114C82.4339 25.4384 82.8019 25.9515 83.5397 25.9515C83.8783 25.9515 84.1592 25.9229 84.3815 25.8657L84.4339 27.2688C84.0606 27.4049 83.569 27.4733 82.9601 27.4733C82.2117 27.4733 81.6268 27.2506 81.2046 26.806C80.7841 26.3605 80.5726 25.6135 80.5726 24.5639V20.3719H79.3281V18.9852H80.5726V17.4625L82.4339 16.9147V18.9852H84.5228V20.3736Z" fill="white"/>
<path d="M93.9484 23.0767C93.9484 24.3551 93.5733 25.4046 92.8249 26.2253C92.04 27.0703 90.9982 27.4915 89.6995 27.4915C88.448 27.4915 87.4515 27.0868 86.7084 26.2773C85.9653 25.4679 85.5938 24.4461 85.5938 23.2145C85.5938 21.9258 85.976 20.8702 86.7431 20.0495C87.5084 19.2279 88.5413 18.8171 89.84 18.8171C91.0915 18.8171 92.0986 19.2218 92.8586 20.0321C93.5857 20.8182 93.9484 21.8331 93.9484 23.0767ZM91.9822 23.1365C91.9822 22.3695 91.8142 21.7117 91.4737 21.1631C91.0764 20.4993 90.5084 20.1682 89.7724 20.1682C89.0106 20.1682 88.432 20.5001 88.0346 21.1631C87.6942 21.7126 87.5262 22.3808 87.5262 23.1712C87.5262 23.9382 87.6942 24.596 88.0346 25.1437C88.4444 25.8076 89.0169 26.1387 89.7555 26.1387C90.4791 26.1387 91.0471 25.8007 91.4569 25.1264C91.8062 24.5674 91.9822 23.9027 91.9822 23.1365Z" fill="white"/>
<path d="M100.109 20.612C99.9209 20.5782 99.7209 20.5608 99.5112 20.5608C98.8445 20.5608 98.3289 20.8061 97.9663 21.2975C97.6507 21.7308 97.4925 22.2786 97.4925 22.9398V27.3035H95.5983L95.616 21.606C95.616 20.6475 95.592 19.7748 95.5449 18.9878H97.1956L97.2649 20.579H97.3174C97.5174 20.0322 97.8329 19.5919 98.2649 19.2617C98.6872 18.9644 99.1432 18.8162 99.6347 18.8162C99.8098 18.8162 99.9681 18.8284 100.109 18.85V20.612Z" fill="white"/>
<path d="M108.583 22.7517C108.583 23.0828 108.561 23.3619 108.514 23.5898H102.829C102.851 24.4114 103.126 25.0397 103.654 25.4731C104.133 25.8605 104.752 26.0546 105.513 26.0546C106.355 26.0546 107.123 25.9237 107.814 25.6611L108.11 26.9438C107.303 27.287 106.35 27.4577 105.251 27.4577C103.928 27.4577 102.89 27.0781 102.134 26.3198C101.381 25.5615 101.003 24.5431 101.003 23.2657C101.003 22.0116 101.354 20.9673 102.057 20.1344C102.793 19.2452 103.788 18.8006 105.039 18.8006C106.269 18.8006 107.199 19.2452 107.831 20.1344C108.332 20.8407 108.583 21.7143 108.583 22.7517ZM106.776 22.2725C106.789 21.7247 106.665 21.2515 106.408 20.852C106.08 20.3381 105.576 20.0815 104.898 20.0815C104.278 20.0815 103.774 20.332 103.39 20.8347C103.074 21.2342 102.886 21.7135 102.829 22.2716H106.776V22.2725Z" fill="white"/>
</svg>
