<svg width="120" height="35" viewBox="0 0 120 35" fill="none" xmlns="http://www.w3.org/2000/svg">
<path d="M115.556 34.6667H4.44444C2.00111 34.6667 0 32.7156 0 30.3334V4.33336C0 1.95111 2.00111 2.47955e-05 4.44444 2.47955e-05H115.556C117.999 2.47955e-05 120 1.95111 120 4.33336V30.3334C120 32.7156 117.999 34.6667 115.556 34.6667Z" fill="black"/>
<path d="M115.556 0.69444C117.613 0.69444 119.288 2.32702 119.288 4.33336V30.3334C119.288 32.3397 117.613 33.9723 115.556 33.9723H4.44444C2.38667 33.9723 0.712222 32.3397 0.712222 30.3334V4.33336C0.712222 2.32702 2.38667 0.69444 4.44444 0.69444H115.556ZM115.556 2.47955e-05H4.44444C2.00111 2.47955e-05 0 1.95111 0 4.33336V30.3334C0 32.7156 2.00111 34.6667 4.44444 34.6667H115.556C117.999 34.6667 120 32.7156 120 30.3334V4.33336C120 1.95111 117.999 2.47955e-05 115.556 2.47955e-05Z" fill="#A6A6A6"/>
<path d="M9.2755 6.53359C9.01439 6.80009 8.86328 7.215 8.86328 7.75234V26.9187C8.86328 27.456 9.01439 27.8709 9.2755 28.1374L9.33995 28.1959L20.3555 17.4601V17.2066L9.33995 6.47076L9.2755 6.53359Z" fill="url(#paint0_linear_11986_36797)"/>
<path d="M24.0232 21.0405L20.3555 17.4601V17.2066L24.0277 13.6261L24.1099 13.6727L28.4588 16.0853C29.6999 16.77 29.6999 17.8966 28.4588 18.5856L24.1099 20.9939L24.0232 21.0405Z" fill="url(#paint1_linear_11986_36797)"/>
<path d="M24.1098 20.9939L20.3554 17.3333L9.27539 28.1374C9.68761 28.5599 10.3598 28.6108 11.1243 28.1883L24.1098 20.9939Z" fill="url(#paint2_linear_11986_36797)"/>
<path d="M24.1098 13.6727L11.1243 6.47832C10.3598 6.06015 9.68761 6.11106 9.27539 6.53356L20.3554 17.3333L24.1098 13.6727Z" fill="url(#paint3_linear_11986_36797)"/>
<path d="M42.1489 8.8779C42.1489 9.60156 41.9267 10.1811 41.4889 10.6134C40.9856 11.1258 40.33 11.3836 39.5267 11.3836C38.7589 11.3836 38.1034 11.1215 37.5656 10.6047C37.0267 10.0804 36.7578 9.4369 36.7578 8.66665C36.7578 7.8964 37.0267 7.2529 37.5656 6.7329C38.1034 6.21181 38.7589 5.94965 39.5267 5.94965C39.9089 5.94965 40.2734 6.02656 40.6211 6.16956C40.9678 6.31365 41.25 6.50865 41.4545 6.74915L40.99 7.20631C40.6334 6.79573 40.1478 6.59315 39.5267 6.59315C38.9667 6.59315 38.4811 6.78381 38.0689 7.1684C37.6611 7.55406 37.4567 8.05348 37.4567 8.66665C37.4567 9.27981 37.6611 9.78356 38.0689 10.1692C38.4811 10.5495 38.9667 10.7445 39.5267 10.7445C40.1211 10.7445 40.6211 10.5495 41.0156 10.1649C41.2756 9.91031 41.4234 9.55931 41.4623 9.11081H39.5267V8.48465H42.1089C42.14 8.62006 42.1489 8.75115 42.1489 8.8779Z" fill="white" stroke="white" stroke-width="0.16" stroke-miterlimit="10"/>
<path d="M46.246 6.70693H43.8205V8.3536H46.0071V8.97976H43.8205V10.6264H46.246V11.2645H43.1338V6.06885H46.246V6.70693Z" fill="white" stroke="white" stroke-width="0.16" stroke-miterlimit="10"/>
<path d="M49.1364 11.2645H48.4497V6.70693H46.9619V6.06885H50.6252V6.70693H49.1364V11.2645Z" fill="white" stroke="white" stroke-width="0.16" stroke-miterlimit="10"/>
<path d="M53.2764 11.2645V6.06885H53.9619V11.2645H53.2764Z" fill="white" stroke="white" stroke-width="0.16" stroke-miterlimit="10"/>
<path d="M57.0016 11.2645H56.3205V6.70693H54.8271V6.06885H58.4949V6.70693H57.0016V11.2645Z" fill="white" stroke="white" stroke-width="0.16" stroke-miterlimit="10"/>
<path d="M65.4301 10.5961C64.9045 11.1215 64.2534 11.3836 63.4767 11.3836C62.6956 11.3836 62.0445 11.1215 61.519 10.5961C60.9945 10.0717 60.7334 9.42823 60.7334 8.66665C60.7334 7.90506 60.9945 7.26156 61.519 6.73723C62.0445 6.21181 62.6956 5.94965 63.4767 5.94965C64.249 5.94965 64.9001 6.21181 65.4256 6.74156C65.9545 7.27023 66.2156 7.9094 66.2156 8.66665C66.2156 9.42823 65.9545 10.0717 65.4301 10.5961ZM62.0267 10.1606C62.4223 10.5495 62.9034 10.7445 63.4767 10.7445C64.0456 10.7445 64.5312 10.5495 64.9223 10.1606C65.3167 9.77164 65.5167 9.27223 65.5167 8.66665C65.5167 8.06106 65.3167 7.56165 64.9223 7.17273C64.5312 6.78381 64.0456 6.58881 63.4767 6.58881C62.9034 6.58881 62.4223 6.78381 62.0267 7.17273C61.6323 7.56165 61.4323 8.06106 61.4323 8.66665C61.4323 9.27223 61.6323 9.77164 62.0267 10.1606Z" fill="white" stroke="white" stroke-width="0.16" stroke-miterlimit="10"/>
<path d="M67.1787 11.2645V6.06885H68.012L70.6032 10.1097H70.6332L70.6032 9.11085V6.06885H71.2887V11.2645H70.5732L67.8598 7.02435H67.8298L67.8598 8.02751V11.2645H67.1787Z" fill="white" stroke="white" stroke-width="0.16" stroke-miterlimit="10"/>
<path d="M60.5649 18.8522C58.4771 18.8522 56.7716 20.4014 56.7716 22.5388C56.7716 24.6589 58.4771 26.2243 60.5649 26.2243C62.6571 26.2243 64.3627 24.6589 64.3627 22.5388C64.3627 20.4014 62.6571 18.8522 60.5649 18.8522ZM60.5649 24.7726C59.4193 24.7726 58.4338 23.8507 58.4338 22.5388C58.4338 21.2095 59.4193 20.3039 60.5649 20.3039C61.7105 20.3039 62.7005 21.2095 62.7005 22.5388C62.7005 23.8507 61.7105 24.7726 60.5649 24.7726ZM52.2882 18.8522C50.196 18.8522 48.4949 20.4014 48.4949 22.5388C48.4949 24.6589 50.196 26.2243 52.2882 26.2243C54.3793 26.2243 56.0816 24.6589 56.0816 22.5388C56.0816 20.4014 54.3793 18.8522 52.2882 18.8522ZM52.2882 24.7726C51.1416 24.7726 50.1527 23.8507 50.1527 22.5388C50.1527 21.2095 51.1416 20.3039 52.2882 20.3039C53.4338 20.3039 54.4194 21.2095 54.4194 22.5388C54.4194 23.8507 53.4338 24.7726 52.2882 24.7726ZM42.4394 19.9821V21.5486H46.276C46.1638 22.424 45.8638 23.0675 45.4038 23.516C44.8438 24.0576 43.9716 24.6589 42.4394 24.6589C40.0782 24.6589 38.2294 22.801 38.2294 20.4989C38.2294 18.1968 40.0782 16.3389 42.4394 16.3389C43.716 16.3389 44.6449 16.8253 45.3305 17.4558L46.4627 16.3519C45.5038 15.4592 44.2282 14.7735 42.4394 14.7735C39.2016 14.7735 36.4805 17.342 36.4805 20.4989C36.4805 23.6557 39.2016 26.2243 42.4394 26.2243C44.1894 26.2243 45.5038 25.6653 46.5371 24.6166C47.596 23.5842 47.926 22.1325 47.926 20.9604C47.926 20.5964 47.8949 20.2616 47.8394 19.9821H42.4394ZM82.7127 21.1965C82.4005 20.3721 81.4371 18.8522 79.4749 18.8522C77.5305 18.8522 75.9116 20.3461 75.9116 22.5388C75.9116 24.6036 77.5138 26.2243 79.6616 26.2243C81.3982 26.2243 82.4004 25.1919 82.8127 24.5906L81.5238 23.7532C81.0938 24.3664 80.5082 24.7726 79.6616 24.7726C78.8205 24.7726 78.2171 24.3967 77.8305 23.6557L82.8871 21.6158L82.7127 21.1965ZM77.5571 22.424C77.5138 21.0026 78.6893 20.2746 79.5316 20.2746C80.1916 20.2746 80.7516 20.5964 80.9382 21.0568L77.5571 22.424ZM73.4471 26H75.1093V15.1667H73.4471V26ZM70.7249 19.6734H70.6693C70.296 19.2422 69.5838 18.8522 68.6816 18.8522C66.7882 18.8522 65.0571 20.4729 65.0571 22.5507C65.0571 24.6166 66.7882 26.2243 68.6816 26.2243C69.5838 26.2243 70.296 25.831 70.6693 25.3869H70.7249V25.9155C70.7249 27.325 69.9527 28.0822 68.7071 28.0822C67.6916 28.0822 67.0616 27.3672 66.8016 26.766L65.356 27.3542C65.7727 28.3314 66.876 29.5339 68.7071 29.5339C70.656 29.5339 72.3005 28.4159 72.3005 25.6956V19.0765H70.7249V19.6734ZM68.8238 24.7726C67.6782 24.7726 66.7193 23.8377 66.7193 22.5507C66.7193 21.2518 67.6782 20.3039 68.8238 20.3039C69.9527 20.3039 70.8427 21.2518 70.8427 22.5507C70.8427 23.8377 69.9527 24.7726 68.8238 24.7726ZM90.4949 15.1667H86.5193V26H88.1771V21.8953H90.4949C92.336 21.8953 94.1416 20.5964 94.1416 18.5305C94.1416 16.4656 92.3316 15.1667 90.4949 15.1667ZM90.5382 20.3884H88.1771V16.6736H90.5382C91.776 16.6736 92.4827 17.6757 92.4827 18.5305C92.4827 19.369 91.776 20.3884 90.5382 20.3884ZM100.786 18.8316C99.5882 18.8316 98.3427 19.3473 97.8304 20.4902L99.3016 21.0915C99.6182 20.4902 100.2 20.2952 100.816 20.2952C101.676 20.2952 102.548 20.799 102.562 21.6884V21.8021C102.262 21.6331 101.619 21.3829 100.829 21.3829C99.2449 21.3829 97.6304 22.2333 97.6304 23.8204C97.6304 25.272 98.9282 26.207 100.387 26.207C101.503 26.207 102.118 25.7162 102.505 25.1453H102.562V25.9827H104.163V21.827C104.163 19.9063 102.692 18.8316 100.786 18.8316ZM100.586 24.7683C100.044 24.7683 99.2882 24.5061 99.2882 23.8507C99.2882 23.0122 100.23 22.6905 101.046 22.6905C101.776 22.6905 102.118 22.8475 102.562 23.0545C102.432 24.0576 101.546 24.7683 100.586 24.7683ZM109.996 19.0689L108.09 23.7651H108.034L106.064 19.0689H104.276L107.236 25.6317L105.547 29.2836H107.279L111.84 19.0689H109.996ZM95.0527 26H96.7149V15.1667H95.0527V26Z" fill="white"/>
<defs>
<linearGradient id="paint0_linear_11986_36797" x1="19.3775" y1="27.1183" x2="4.83737" y2="12.2054" gradientUnits="userSpaceOnUse">
<stop stop-color="#00A0FF"/>
<stop offset="0.0066" stop-color="#00A1FF"/>
<stop offset="0.2601" stop-color="#00BEFF"/>
<stop offset="0.5122" stop-color="#00D2FF"/>
<stop offset="0.7604" stop-color="#00DFFF"/>
<stop offset="1" stop-color="#00E3FF"/>
</linearGradient>
<linearGradient id="paint1_linear_11986_36797" x1="30.0749" y1="17.3321" x2="8.56658" y2="17.3321" gradientUnits="userSpaceOnUse">
<stop stop-color="#FFE000"/>
<stop offset="0.4087" stop-color="#FFBD00"/>
<stop offset="0.7754" stop-color="#FFA500"/>
<stop offset="1" stop-color="#FF9C00"/>
</linearGradient>
<linearGradient id="paint2_linear_11986_36797" x1="22.0683" y1="15.3434" x2="2.35074" y2="-4.87973" gradientUnits="userSpaceOnUse">
<stop stop-color="#FF3A44"/>
<stop offset="1" stop-color="#C31162"/>
</linearGradient>
<linearGradient id="paint3_linear_11986_36797" x1="6.48632" y1="34.5139" x2="15.2911" y2="25.4835" gradientUnits="userSpaceOnUse">
<stop stop-color="#32A071"/>
<stop offset="0.0685" stop-color="#2DA771"/>
<stop offset="0.4762" stop-color="#15CF74"/>
<stop offset="0.8009" stop-color="#06E775"/>
<stop offset="1" stop-color="#00F076"/>
</linearGradient>
</defs>
</svg>
