<svg width="119" height="51" viewBox="0 0 119 51" fill="none" xmlns="http://www.w3.org/2000/svg">
<g clip-path="url(#clip0_12193_35651)">
<path d="M48.8206 32.1096C48.5061 32.3316 47.8619 32.5218 47.162 32.5218C45.8773 32.5218 45.2994 31.5354 45.3233 30.388C45.3436 29.437 45.9362 28.3593 47.5407 28.3593L48.8208 28.3586V32.1096H48.8206ZM47.4997 21.5626C45.9753 21.5626 44.6032 21.9937 43.1932 22.6938L42.8334 22.8793L43.6918 24.7948L44.1756 24.566C45.1741 24.1191 46.2378 23.8196 47.1942 23.8596C48.3518 23.9078 48.8255 24.4385 48.8255 25.5461V26.1959H46.9325C43.8898 26.1959 41.9964 27.8089 41.9417 30.3132C41.9417 32.6931 43.9259 34.7417 46.6844 34.7417C48.9104 34.7417 50.7964 34.0195 52.0672 32.7466V25.9557C52.0672 22.6489 49.7064 21.5626 47.4997 21.5626ZM92.691 32.5134V34.5218C92.691 34.5218 92.0167 34.6505 91.4704 34.6505C88.92 34.6505 87.3974 33.449 87.3974 30.6433V18.8102L90.6 18.2646V30.8507C90.6 31.8231 90.8793 32.4049 92.2094 32.5085C92.391 32.5218 92.6912 32.5132 92.6912 32.5132L92.691 32.5134ZM78.644 26.5385C78.6979 25.3062 79.2109 24.0393 80.4724 24.0393C81.8922 24.0393 82.1017 25.5794 82.1017 26.5385H78.644ZM81.163 32.4987C80.2874 32.4987 79.6964 32.2115 79.3089 31.7935C78.734 31.1728 78.4792 29.8964 78.5485 28.5395H85.4365V28.2229C85.375 23.7142 83.8377 21.6602 80.4727 21.6602C76.7168 21.6602 75.254 25.1153 75.2265 28.3617C75.2032 30.4154 75.9778 32.4831 77.3941 33.6611C78.2567 34.3775 79.4528 34.7745 80.839 34.7745C81.5943 34.7745 82.3837 34.6621 83.1036 34.4394C84.4855 34.0111 85.5051 33.2715 85.5051 33.2715L84.6044 31.4176C84.4422 31.5401 83.0627 32.4987 81.163 32.4987ZM74.1033 32.525V34.5046C74.1033 34.5046 73.5126 34.6219 72.8855 34.6219C70.2769 34.6219 68.7203 33.3622 68.7203 30.6991V18.8081L71.995 18.2821V21.7954H74.1023V24.1436H71.995V30.8344C71.995 31.7104 72.2655 32.4673 73.6389 32.5155C73.8247 32.522 74.0686 32.5218 74.1033 32.525ZM54.4591 22.3098L57.6541 21.7884V34.5113H54.4591V22.3098ZM56.0893 16.7045C56.6451 16.7045 57.1592 16.921 57.537 17.3134C57.7209 17.5032 57.8647 17.7282 57.9598 17.9747C58.0549 18.2213 58.0994 18.4846 58.0907 18.7487C58.0907 19.8803 57.1993 20.7704 56.0609 20.7704C54.9246 20.7704 54.0318 19.8778 54.0318 18.7355C54.0318 17.6164 54.9551 16.7045 56.0893 16.7045ZM67.8594 21.9816L66.9579 24.0028C66.9579 24.0028 66.4431 23.838 65.6503 23.8701C64.7929 23.9043 63.891 24.2672 63.4665 24.6812V34.5204H60.2066L60.2089 24.0684C62.1498 22.0053 64.3034 21.5943 65.7064 21.5943C66.6751 21.5943 67.5091 21.8089 67.8594 21.9816ZM27.0966 11.7989V11.8343H26.8138V11.8696H26.4954V11.905H26.2126V11.9404H25.965V11.9755H25.7881V12.0109H25.6115V12.0463H25.4346V12.0817H25.2579V12.1171H25.081V12.1524H24.9044V12.1878H24.7985V12.2232H24.657V12.2586H24.5154V12.2939H24.3742V12.3291H24.268V12.3645H24.1268V12.3998H23.9852V12.4352H23.8437V12.4706H23.7378V12.506H23.6317V12.5414H23.5256V12.5767H23.4197V12.6121H23.3135V12.6475H23.2074V12.6826H23.1013V12.718H22.9954V12.7534H22.8892V12.7888H22.7831V12.8241H22.6772V12.8595H22.5713V12.8949H22.4652V12.9303H22.3593V12.9657H22.2885V13.001H22.1824V13.0362H22.1116V13.0716H22.0057V13.1069H21.935V13.1423H21.8288V13.1777H21.7227V13.2131H21.6522V13.2484H21.5461V13.2838H21.4753V13.3192H21.3692V13.3546H21.2986V13.3897H21.1925V13.4251H21.1218V13.4605H21.051V13.4959H20.9805V13.5312H20.8743V13.5666H20.8036V13.602H20.7328V13.6374H20.6621V13.6727H20.5916V13.7081H20.4854V13.7433H20.4147V13.7786H20.3439V13.814H20.2734V13.8494H20.2026V13.8848H20.0965V13.9201H20.0257V13.9555H19.955V13.9909H19.8845V14.0263H19.8137V14.0617H19.743V14.0968H19.6722V14.1322H19.6017V14.1676H19.5309V14.2029H19.4602V14.2383H19.3894V14.2737H19.3187V14.3091H19.2481V14.3444H19.1774V14.3798H19.1066V14.4152H19.0359V14.4503H18.9651V14.4857H18.9297V14.5211H18.8592V14.5565H18.7885V14.5919H18.7177V14.6272H18.6469V14.6626H18.5762V14.698H18.5057V14.7334H18.4703V14.7685H18.3995V14.8039H18.3288V14.8393H18.258V14.8746H18.2226V14.91H18.1521V14.9454H18.0814V14.9808H18.0106V15.0162H17.9752V15.0515H17.9045V15.0869H17.834V15.1221H17.7632V15.1574H17.6924V15.1928H17.6571V15.2282H17.5863V15.2636H17.5156V15.2989H17.445V15.3343H17.4097V15.3697H17.3389V15.4051H17.3035V15.4405H17.2328V15.4756H17.1974V15.511H17.1269V15.5464H17.0561V15.5817H17.0207V15.6171H16.95V15.6525H16.9146V15.6879H16.8439V15.7232H16.7733V15.7586H16.738V15.794H16.6672V15.8291H16.6318V15.8645H16.5611V15.8999H16.5257V15.9353H16.4552V15.9707H16.3844V16.006H16.349V16.0414H16.2783V16.0768H16.2429V16.1122H16.1721V16.1475H16.1368V16.1827H16.0662V16.2181H16.0309V16.2534H15.9955V16.2888H15.9247V16.3242H15.8894V16.3596H15.8186V16.395H15.7832V16.4303H15.7127V16.4657H15.6773V16.5011H15.6419V16.5362H15.5712V16.5716H15.5358V16.607H15.4651V16.6424H15.4297V16.6777H15.3592V16.7131H15.3238V16.7485H15.2884V16.7839H15.2176V16.8193H15.1823V16.8546H15.1115V16.8898H15.0761V16.9251H15.041V16.9605H14.9702V16.9959H14.9349V17.0313H14.8995V17.0667H14.8287V17.102H14.7933V17.1374H14.758V17.1728H14.7226V17.2082H14.6521V17.2433H14.6167V17.2787H14.5813V17.3141H14.5106V17.3494H14.4752V17.3848H14.4398V17.4202H14.4044V17.4556H14.3339V17.491H14.2985V17.5263H14.2631V17.5615H14.1924V17.5969H14.157V17.6322H14.1216V17.6676H14.0509V17.703H14.0157V17.7384H13.9804V17.7737H13.945V17.8091H13.9096V17.8445H13.8742V17.8799H13.8035V17.915H13.7681V17.9504H13.7327V17.9858H13.6973V18.0212H13.6622V18.0565H13.6268V18.0919H13.5561V18.1273H13.5207V18.1627H13.4853V18.198H13.4499V18.2334H13.4145V18.2686H13.3792V18.3039H13.3086V18.3393H13.2733V18.3747H13.2379V18.4101H13.2025V18.4455H13.1671V18.4808H13.1318V18.5162H13.061V18.5516H13.0256V18.587H12.9902V18.6221H12.9551V18.6575H12.9197V18.6929H12.8843V18.7282H12.849V18.7636H12.8136V18.799H12.7782V18.8344H12.7428V18.8698H12.7075V18.9051H12.6721V18.9405H12.6367V18.9757H12.6016V19.011H12.5662V19.0464H12.5308V19.0818H12.4954V19.1172H12.46V19.1525H12.4247V19.1879H12.3893V19.2233H12.3539V19.2587H12.2832V19.2941H12.248V19.3292H12.2126V19.3646H12.1773V19.4H12.1419V19.4353H12.1065V19.4707H12.0711V19.5061H12.0357V19.5415H12.0004V19.5768H11.965V19.6122H11.9296V19.6827H11.8945V19.7181H11.8591V19.7535H11.8237V19.7889H11.7883V19.8243H11.753V19.8596H11.7176V19.895H11.6822V19.9304H11.6468V19.9658H11.6115V20.0011H11.5761V20.0717H11.5409V20.107H11.5056V20.1424H11.4702V20.1778H11.4348V20.2132H11.3994V20.2486H11.364V20.2839H11.3287V20.3193H11.2933V20.3544H11.2579V20.4252H11.2228V20.4606H11.1874V20.496H11.152V20.5313H11.1166V20.5667H11.0813V20.6021H11.0459V20.6728H11.0105V20.708H10.9751V20.7434H10.9397V20.8141H10.9044V20.8495H10.8692V20.8849H10.8338V20.9203H10.7985V20.991H10.7631V21.0264H10.7277V21.0615H10.6923V21.1323H10.657V21.1677H10.6216V21.203H10.5862V21.2384H10.5508V21.3092H10.5157V21.3446H10.4801V21.3799H10.4447V21.4505H10.4093V21.4858H10.3739V21.5212H10.3386V21.592H10.3032V21.6273H10.2683V21.6981H10.2329V21.7335H10.1975V21.7686H10.1624V21.8394H10.127V21.8748H10.0914V21.9455H10.056V21.9809H10.0206V22.0516H9.98524V22.1222H9.94986V22.1575H9.91449V22.2283H9.87911V22.2637H9.84373V22.3344H9.80859V22.4052H9.77321V22.4406H9.7376V22.5111H9.70222V22.5465H9.66684V22.6172H9.63147V22.688H9.59609V22.7587H9.56071V22.8293H9.5258V22.8646H9.49042V22.9354H9.45528V23.0061H9.4199V23.0769H9.38452V23.1474H9.34891V23.2182H9.31353V23.2889H9.27816V23.3597H9.24278V23.4304H9.2074V23.501H9.17202V23.6071H9.13664V23.6778H9.1015V23.7486H9.06612V23.8545H9.03074V23.9253H8.99513V24.0314H8.95976V24.1375H8.92438V24.208H8.889V24.3496H8.85362V24.4557H8.81848V24.5616H8.78333V24.7031H8.74796V24.88H8.71258V25.0213H8.6772V25.2687H8.64182V25.693H8.60645V26.0819H8.64182V26.4357H8.6772V26.6123H8.71258V26.7536H8.74796V26.8951H8.7831V27.001H8.81848V27.1072H8.85386V27.2133H8.88923V27.284H8.92461V27.3546H8.95999V27.4253H8.99537V27.4961H9.03074V27.5668H9.06612V27.6376H9.1015V27.7081H9.13664V27.7435H9.17202V27.8142H9.2074V27.8496H9.24278V27.9204H9.27816V27.9557H9.31353V28.0265H9.34891V28.0616H9.38429V28.097H9.41967V28.1324H9.45504V28.1678H9.49019V28.2032H9.52557V28.2385H9.56094V28.2739H9.59632V28.3093H9.6317V28.3447H9.66708V28.38H9.70245V28.4152H9.73783V28.4506H9.77321V28.4859H9.80859V28.5213H9.84373V28.5567H9.87911V28.5921H9.91449V28.6275H9.94986V28.6628H9.98524V28.6982H10.056V28.7334H10.0914V28.7687H10.1621V28.8041H10.1973V28.8395H10.268V28.8749H10.3034V28.9102H10.3742V28.9456H10.4095V28.981H10.4803V29.0164H10.5157V29.0518H10.5862V29.0869H10.6216V29.1223H10.6923V29.1577H10.7631V29.193H10.8692V29.2284H10.9397V29.2638H11.0105V29.2992H11.1166V29.3345H11.1874V29.3699H11.2579V29.4053H11.3994V29.4404H11.5763V29.4758H11.753V29.5112H11.9298V29.5466H12.8136V29.5112H13.061V29.4758H13.2733V29.4404H13.4145V29.4053H13.5561V29.3699H13.6622V29.3345H13.7681V29.2992H13.9096V29.2638H14.0157V29.2284H14.0863V29.193H14.1924V29.1577H14.2631V29.1223H14.3339V29.0869H14.4398V29.0518H14.5106V29.0164H14.5813V28.981H14.6521V28.9456H14.7226V28.9102H14.7933V28.8749H14.8641V28.8395H14.9349V28.8041H15.0056V28.7687H15.0761V28.7334H15.1469V28.6982H15.2176V28.6628H15.2884V28.6275H15.3238V28.5921H15.3945V28.5567H15.4297V28.5213H15.5004V28.4859H15.5712V28.4506H15.6066V28.4152H15.6773V28.38H15.7481V28.3447H15.7832V28.3093H15.854V28.2739H15.8894V28.2385H15.9601V28.2032H15.9955V28.1678H16.0662V28.1324H16.1016V28.097H16.1721V28.0616H16.2075V28.0265H16.2783V27.9911H16.3137V27.9557H16.3844V27.9204H16.4198V27.885H16.4903V27.8496H16.5257V27.8142H16.5611V27.7789H16.6318V27.7435H16.6672V27.7081H16.7026V27.673H16.7733V27.6376H16.8087V27.6022H16.8792V27.5668H16.9146V27.5314H16.95V27.4961H17.0207V27.4607H17.0561V27.4253H17.0915V27.3899H17.162V27.3546H17.1974V27.3194H17.2328V27.284H17.3035V27.2487H17.3389V27.2133H17.3743V27.1779H17.445V27.1425H17.4804V27.1072H17.5156V27.0718H17.5863V27.0364H17.6217V27.001H17.6571V26.9659H17.6924V26.9305H17.7632V26.8951H17.7986V26.8597H17.834V26.8244H17.9045V26.789H17.9399V26.7536H17.9752V26.7182H18.046V26.6829H18.0814V26.6475H18.1167V26.6123H18.1521V26.577H18.2226V26.5416H18.258V26.5062H18.2934V26.4708H18.3642V26.4354H18.3995V26.4001H18.4349V26.3647H18.5057V26.3293H18.541V26.2939H18.5762V26.2588H18.6469V26.2234H18.6823V26.188H18.7177V26.1527H18.7885V26.1173H18.8238V26.0819H18.8592V26.0465H18.9297V26.0111H18.9651V25.9758H19.0359V25.9404H19.0712V25.9052H19.1066V25.8699H19.1774V25.8345H19.2128V25.7991H19.2833V25.7637H19.3187V25.7284H19.3894V25.693H19.4248V25.6576H19.4955V25.6222H19.5309V25.5871H19.6017V25.5517H19.6368V25.5163H19.6722V25.4809H19.743V25.4456H19.7783V25.4102H19.8491V25.3748H19.8845V25.3394H19.955V25.3041H19.9904V25.2687H20.0611V25.2335H20.0965V25.1982H20.1673V25.1628H20.2026V25.1274H20.2734V25.092H20.3085V25.0566H20.3793V25.0213H20.4147V24.9859H20.4854V24.9505H20.5208V24.9151H20.5916V24.88H20.6269V24.8446H20.6621V24.8092H20.7328V24.7739H20.7682V24.7385H20.839V24.7031H20.8743V24.6677H20.9451V24.6323H20.9805V24.597H21.051V24.5616H21.0864V24.5264H21.1571V24.4911H21.1925V24.4557H21.2633V24.4203H21.2986V24.3849H21.3692V24.3496H21.4045V24.3142H21.4753V24.2788H21.5107V24.2434H21.5814V24.208H21.6168V24.1729H21.6876V24.1375H21.7227V24.1021H21.7935V24.0668H21.8288V24.0314H21.8996V23.996H21.935V23.9606H22.0057V23.9253H22.0411V23.8899H22.1116V23.8545H22.147V23.8194H22.2178V23.784H22.2531V23.7486H22.3239V23.7132H22.3593V23.6778H22.4298V23.6425H22.4652V23.6071H22.5359V23.5717H22.5713V23.5363H22.6421V23.501H22.7128V23.4658H22.748V23.4304H22.8187V23.3951H22.8541V23.3597H22.9249V23.3243H22.9602V23.2889H23.031V23.2536H23.0664V23.2182H23.1369V23.1828H23.1723V23.1474H23.243V23.1123H23.3138V23.0769H23.3491V23.0415H23.4199V23.0061H23.4551V22.9708H23.5258V22.9354H23.5966V22.9H23.6319V22.8646H23.7027V22.8293H23.7381V22.7941H23.8086V22.7587H23.844V22.7234H23.9147V22.688H23.9855V22.6526H24.0209V22.6172H24.0916V22.5818H24.1621V22.5465H24.1975V22.5111H24.2683V22.4757H24.339V22.4406H24.3744V22.4052H24.4452V22.3698H24.5157V22.3344H24.5511V22.2991H24.6218V22.2637H24.6926V22.2283H24.7279V22.1929H24.7987V22.1575H24.8692V22.1222H24.9046V22.087H24.9754V22.0516H25.0461V22.0163H25.1169V21.9809H25.1522V21.9455H25.2228V21.9101H25.2935V21.8748H25.3643V21.8394H25.3997V21.804H25.4704V21.7686H25.5409V21.7335H25.6117V21.6981H25.6824V21.6627H25.7178V21.6273H25.7886V21.592H25.8593V21.5566H25.9299V21.5212H26.0006V21.4858H26.0714V21.4505H26.1421V21.4151H26.2129V21.3799H26.2834V21.3446H26.3542V21.3092H26.4249V21.2738H26.4957V21.2384H26.5664V21.203H26.6016V21.1677H26.7077V21.1323H26.7785V21.0969H26.8492V21.0615H26.92V21.0264H26.9905V20.991H27.0966V20.9556H27.1674V20.9203H27.2381V20.8849H27.3087V20.8495H27.3794V20.8141H27.4855V20.7787H27.5563V20.7434H27.6622V20.708H27.733V20.6728H27.8391V20.6375H27.9452V20.6021H28.0157V20.5667H28.1219V20.5313H28.1926V20.496H28.2988V20.4606H28.44V20.4252H28.5462V20.3898H28.6875V20.3544H28.7936V20.3193H28.9351V20.2839H29.0764V20.2486H29.2533V20.2132H29.4653V20.1778H29.6422V20.1424H30.2431V20.107H30.3139V20.1424H30.6321V20.1778H30.9148V20.2132H31.021V20.2486H31.1269V20.2839H31.233V20.3193H31.3038V20.3544H31.4099V20.3898H31.4804V20.4252H31.5512V20.4606H31.5866V20.496H31.6573V20.5313H31.7281V20.5667H31.7634V20.6021H31.834V20.6375H31.8693V20.6728H31.9401V20.708H31.9755V20.7434H32.0109V20.7787H32.0462V20.8141H32.0816V20.8495H32.117V20.8849H32.1524V20.9203H32.1875V20.9556H32.2229V20.991H32.2583V21.0264H32.2936V21.0615H32.329V21.1323H32.3644V21.1677H32.3998V21.203H32.4352V21.2738H32.4705V21.3092H32.5059V21.3799H32.5411V21.4151H32.5764V21.4858H32.6118V21.5566H32.6472V21.592H32.6826V21.6627H32.7179V21.7335H32.7533V21.804H32.7887V21.8748H32.8241V21.9809H32.8595V22.0516H32.8946V22.1575H32.93V22.2283H32.9654V22.3344H33.0007V22.4406H33.0361V22.5818H33.0715V22.688H33.1069V22.8293H33.1422V23.0415H33.1776V23.2184H33.213V23.6071H33.2481V24.4911H33.213V24.7739H33.1776V25.092H33.1422V25.2689H33.1069V25.4456H33.0715V25.5871H33.0361V25.7637H33.0007V25.9052H32.9654V26.0465H32.93V26.1527H32.8946V26.2588H32.8595V26.3647H32.8241V26.5062H32.7887V26.6123H32.7533V26.7182H32.7179V26.8244H32.6826V26.8951H32.6472V27.001H32.6118V27.0718H32.5764V27.1779H32.5411V27.2487H32.5059V27.3546H32.4705V27.4253H32.4352V27.5314H32.3998V27.6022H32.3644V27.673H32.329V27.7435H32.2936V27.8142H32.2583V27.9204H32.2229V27.9911H32.1875V28.0616H32.1524V28.1324H32.117V28.2032H32.0816V28.2385H32.0462V28.3093H32.0109V28.38H31.9755V28.4506H31.9401V28.5213H31.9047V28.5567H31.8693V28.6275H31.834V28.6982H31.7988V28.7334H31.7634V28.8041H31.7281V28.8749H31.6927V28.9102H31.6573V28.981H31.6219V29.0518H31.5866V29.0869H31.5512V29.1577H31.5158V29.193H31.4804V29.2638H31.4453V29.2992H31.4099V29.3699H31.3745V29.4053H31.3391V29.4758H31.3038V29.5112H31.2684V29.582H31.233V29.6173H31.1976V29.6881H31.1623V29.7235H31.1269V29.7588H31.0917V29.8294H31.0564V29.8647H31.021V29.9001H30.9856V29.9709H30.9502V30.0063H30.9148V30.0416H30.8795V30.1124H30.8441V30.1475H30.8087V30.2183H30.7736V30.2537H30.7382V30.289H30.7028V30.3244H30.6674V30.3952H30.6321V30.4305H30.5967V30.4659H30.5613V30.5011H30.5259V30.5718H30.4905V30.6072H30.4552V30.6426H30.42V30.678H30.3846V30.7487H30.3493V30.7841H30.3139V30.8195H30.2785V30.8546H30.2431V30.89H30.2078V30.9607H30.1724V30.9961H30.137V31.0315H30.1016V31.0669H30.0665V31.1023H30.0311V31.173H29.9957V31.2082H29.9604V31.2435H29.925V31.2789H29.8896V31.3143H29.8542V31.3497H29.8188V31.385H29.7835V31.4204H29.7481V31.4912H29.7129V31.5263H29.6776V31.5617H29.6422V31.5971H29.6068V31.6325H29.5714V31.6678H29.5361V31.7032H29.5007V31.7386H29.4653V31.774H29.4299V31.8447H29.3945V31.8799H29.3594V31.9152H29.324V31.9506H29.2886V31.986H29.2533V32.0214H29.2179V32.0568H29.1825V32.0921H29.1471V32.1275H29.1117V32.1629H29.0764V32.1983H29.041V32.2334H29.0059V32.2688H28.9705V32.3042H28.9351V32.3395H28.8997V32.3749H28.8643V32.4103H28.829V32.4457H28.7936V32.4811H28.7582V32.5164H28.7228V32.5518H28.6875V32.587H28.6523V32.6223H28.6169V32.6577H28.5816V32.6931H28.5462V32.7285H28.5108V32.7638H28.4754V32.7992H28.44V32.8346H28.4047V32.87H28.3693V32.9054H28.3339V32.9405H28.2988V32.9759H28.2634V33.0113H28.228V33.0466H28.1926V33.082H28.1573V33.1174H28.1219V33.1528H28.0865V33.1881H28.0511V33.2235H28.0157V33.2589H27.9806V33.294H27.9452V33.3294H27.8745V33.3648H27.8391V33.4002H27.8037V33.4356H27.7683V33.4709H27.733V33.5063H27.6976V33.5417H27.6622V33.5771H27.6271V33.6124H27.5917V33.6476H27.5563V33.683H27.4855V33.7183H27.4502V33.7537H27.4148V33.7891H27.3794V33.8245H27.344V33.8598H27.3087V33.8952H27.2735V33.9306H27.2381V33.966H27.1674V34.0011H27.132V34.0365H27.0966V34.0719H27.0612V34.1073H27.0259V34.1426H26.9905V34.178H26.9551V34.2134H26.8846V34.2488H26.8492V34.2841H26.8138V34.3193H26.7785V34.3547H26.7431V34.39H26.6723V34.4254H26.6369V34.4608H26.6016V34.4962H26.5664V34.5316H26.531V34.5669H26.4603V34.6023H26.4249V34.6377H26.3895V34.6728H26.3542V34.7082H26.3188V34.7436H26.248V34.779H26.2129V34.8143H26.1775V34.8497H26.1421V34.8851H26.0714V34.9205H26.036V34.9559H26.0006V34.9912H25.9652V35.0264H25.8945V35.0618H25.8593V35.0971H25.824V35.1325H25.7886V35.1679H25.7178V35.2033H25.6824V35.2386H25.6471V35.274H25.6117V35.3094H25.5409V35.3448H25.5058V35.3799H25.4704V35.4153H25.3997V35.4507H25.3643V35.4861H25.3289V35.5214H25.2581V35.5568H25.2228V35.5922H25.1876V35.6276H25.1169V35.6629H25.0815V35.6983H25.0461V35.7335H24.9754V35.7688H24.94V35.8042H24.9046V35.8396H24.8341V35.875H24.7987V35.9104H24.7633V35.9457H24.6926V35.9811H24.6572V36.0165H24.5864V36.0519H24.5511V36.087H24.5157V36.1224H24.4452V36.1578H24.4098V36.1931H24.339V36.2285H24.3036V36.2639H24.2329V36.2993H24.1975V36.3347H24.1621V36.37H24.0916V36.4054H24.0562V36.4406H23.9855V36.4759H23.9501V36.5113H23.8794V36.5467H23.844V36.5821H23.7734V36.6174H23.7381V36.6528H23.6673V36.6882H23.6319V36.7236H23.5612V36.7589H23.5258V36.7941H23.4551V36.8295H23.4199V36.8649H23.3491V36.9002H23.2784V36.9356H23.243V36.971H23.1723V37.0064H23.1369V37.0417H23.0664V37.0771H22.9956V37.1123H22.9602V37.1476H22.8895V37.183H22.8541V37.2184H22.7833V37.2538H22.7128V37.2891H22.6421V37.3245H22.6067V37.3599H22.5359V37.3953H22.4652V37.4307H22.4298V37.4658H22.3593V37.5012H22.2885V37.5366H22.2178V37.5719H22.1824V37.6073H22.1116V37.6427H22.0411V37.6781H21.9704V37.7134H21.8996V37.7488H21.8288V37.7842H21.7935V37.8193H21.7227V37.8547H21.6522V37.8901H21.5814V37.9255H21.5107V37.9609H21.4399V37.9962H21.3692V38.0316H21.2986V38.067H21.2279V38.1024H21.1218V38.1377H21.051V38.1729H20.9805V38.2083H20.9097V38.2436H20.839V38.279H20.7328V38.3144H20.6621V38.3498H20.5562V38.3852H20.4854V38.4205H20.3793V38.4559H20.2734V38.4913H20.2026V38.5264H20.0611V38.5618H19.955V38.5972H19.8491V38.6326H19.7076V38.6679H19.5307V38.7033H19.2833V38.7387H18.9297V38.7033H18.7885V38.6679H18.6823V38.6326H18.6116V38.5972H18.541V38.5618H18.5057V38.5264H18.4703V38.4913H18.4349V38.4559H18.3995V38.3852H18.3642V38.3144H18.3288V38.2436H18.2934V38.1377H18.258V37.784H18.2934V37.6073H18.3288V37.5012H18.3642V37.3953H18.3995V37.3245H18.4349V37.2538H18.4703V37.183H18.5057V37.1123H18.541V37.0417H18.5762V36.971H18.6116V36.9356H18.6469V36.8649H18.6823V36.7941H18.7177V36.7589H18.7531V36.6882H18.7885V36.6528H18.8238V36.5821H18.8592V36.5467H18.8946V36.4759H18.9297V36.4406H18.9651V36.4054H19.0005V36.3347H19.0359V36.2993H19.0712V36.2639H19.1066V36.1931H19.142V36.1578H19.1774V36.1224H19.2128V36.0519H19.2481V36.0165H19.2833V35.9811H19.3187V35.9457H19.354V35.9104H19.3894V35.8396H19.4248V35.8042H19.4602V35.7688H19.4955V35.7335H19.5309V35.6983H19.5663V35.6629H19.6017V35.5922H19.6368V35.5568H19.6722V35.5214H19.7076V35.4861H19.743V35.4507H19.7783V35.4153H19.8137V35.3799H19.8491V35.3448H19.8845V35.3094H19.9198V35.274H19.955V35.2033H19.9904V35.1679H20.0257V35.1325H20.0611V35.0971H20.0965V35.0618H20.1319V35.0264H20.1673V34.9912H20.2026V34.9559H20.238V34.9205H20.2734V34.8851H20.3085V34.8497H20.3439V34.8143H20.3793V34.779H20.4147V34.7436H20.45V34.7082H20.4854V34.6728H20.5208V34.6377H20.5562V34.6023H20.5916V34.5669H20.6269V34.5316H20.6621V34.4962H20.6975V34.4608H20.7328V34.4254H20.7682V34.39H20.8036V34.3547H20.839V34.3193H20.8743V34.2841H20.9097V34.2488H20.9451V34.2134H20.9805V34.178H21.0156V34.1426H21.051V34.1073H21.0864V34.0719H21.1218V34.0365H21.1571V34.0011H21.1925V33.966H21.2279V33.9306H21.2633V33.8952H21.2986V33.8598H21.334V33.8245H21.3692V33.7891H21.4045V33.7537H21.4399V33.7183H21.4753V33.683H21.5107V33.6476H21.5461V33.6124H21.5814V33.5771H21.6168V33.5417H21.6522V33.5063H21.6876V33.4709H21.7227V33.4356H21.7581V33.4002H21.7935V33.3648H21.8288V33.3294H21.8996V33.294H21.935V33.2235H21.9704V33.1881H22.0057V33.1528H22.0411V33.1174H22.0763V33.082H22.1116V33.0466H22.147V33.0113H22.1824V32.9759H22.2178V32.9405H22.2531V32.9054H22.2885V32.87H22.3239V32.7992H22.3593V32.7638H22.3947V32.7285H22.4298V32.6931H22.4652V32.6577H22.5006V32.6223H22.5359V32.5518H22.5713V32.5164H22.6067V32.4811H22.6421V32.4103H22.6774V32.3749H22.7128V32.3395H22.748V32.3042H22.7833V32.2334H22.8187V32.1983H22.8541V32.1275H22.8895V32.0921H22.9249V32.0214H22.9602V31.9506H22.9956V31.9152H23.031V31.8447H23.0664V31.774H23.1015V31.7386H23.1369V31.6325H23.1723V31.5263H23.2076V31.4204H23.243V31.3497H23.2784V30.8195H23.243V30.678H23.2076V30.5718H23.1723V30.5364H23.1369V30.4659H23.1015V30.4305H23.0664V30.3598H23.031V30.3244H22.9956V30.289H22.9602V30.2537H22.9249V30.2183H22.8895V30.1829H22.8541V30.1475H22.8187V30.1124H22.7833V30.077H22.7128V30.0416H22.6774V30.0063H22.6067V29.9709H22.5713V29.9355H22.5006V29.9001H22.4298V29.8647H22.3593V29.8294H22.2885V29.794H22.1824V29.7588H22.0763V29.7235H22.0057V29.6881H21.8996V29.6527H21.7227V29.6173H21.5814V29.582H21.3692V29.5466H21.051V29.5112H21.0156V29.5466H20.3793V29.582H20.1673V29.6173H19.9904V29.6527H19.8845V29.6881H19.7783V29.7235H19.6368V29.7588H19.5309V29.794H19.4602V29.8294H19.3894V29.8647H19.3187V29.9001H19.2128V29.9355H19.142V29.9709H19.0712V30.0063H19.0005V30.0416H18.9297V30.077H18.8946V30.1124H18.8238V30.1475H18.7885V30.1829H18.7177V30.2183H18.6823V30.2537H18.6116V30.289H18.5762V30.3244H18.541V30.3598H18.4703V30.3952H18.4349V30.4305H18.3642V30.4659H18.3288V30.5011H18.2934V30.5364H18.258V30.5718H18.2226V30.6072H18.1875V30.6426H18.1167V30.678H18.0814V30.7133H18.046V30.7487H18.0106V30.7841H17.9752V30.8195H17.9399V30.8546H17.9045V30.89H17.8691V30.9254H17.834V30.9607H17.7986V30.9961H17.7632V31.0315H17.7278V31.0669H17.6924V31.1023H17.6571V31.1376H17.6217V31.173H17.5863V31.2435H17.5509V31.2789H17.5156V31.3143H17.4804V31.3497H17.445V31.385H17.4097V31.4558H17.3743V31.4912H17.3389V31.5263H17.3035V31.5617H17.2682V31.5971H17.2328V31.6325H17.1974V31.7032H17.162V31.7386H17.1269V31.8093H17.0915V31.8447H17.0561V31.9152H17.0207V31.9506H16.9854V32.0214H16.95V32.0568H16.9146V32.1275H16.8792V32.1629H16.8439V32.2334H16.8087V32.2688H16.7733V32.3395H16.738V32.3749H16.7026V32.4457H16.6672V32.4811H16.6318V32.5518H16.5964V32.6223H16.5611V32.6931H16.5257V32.7638H16.4903V32.8346H16.4552V32.9054H16.4198V32.9759H16.3844V33.0113H16.349V33.082H16.3137V33.1528H16.2783V33.2235H16.2429V33.294H16.2075V33.3648H16.1721V33.4356H16.1368V33.5063H16.1016V33.5771H16.0662V33.6476H16.0309V33.7537H15.9955V33.8245H15.9601V33.8952H15.9247V34.0011H15.8894V34.0719H15.854V34.1426H15.8186V34.2488H15.7832V34.3193H15.7481V34.39H15.7127V34.4962H15.6773V34.5669H15.6419V34.6728H15.6066V34.779H15.5712V34.8851H15.5358V34.9912H15.5004V35.1325H15.4651V35.2386H15.4297V35.3448H15.3945V35.4861H15.3592V35.7335H15.3238V35.9811H15.2884V36.2639H15.253V36.2993H15.2884V37.0064H15.3238V37.1476H15.3592V37.2891H15.3945V37.466H15.4297V37.6073H15.4651V37.6781H15.5004V37.7488H15.5358V37.8547H15.5712V37.9255H15.6066V37.9962H15.6419V38.067H15.6773V38.1377H15.7127V38.2083H15.7481V38.2436H15.7832V38.3144H15.8186V38.3498H15.854V38.4205H15.8894V38.4559H15.9247V38.4913H15.9601V38.5618H15.9955V38.5972H16.0309V38.6326H16.0662V38.7033H16.1368V38.7387H16.1721V38.7741H16.2075V38.8095H16.2429V38.8448H16.2783V38.88H16.3137V38.9154H16.349V38.9507H16.3844V38.9861H16.4198V39.0215H16.4552V39.0569H16.4903V39.0922H16.5611V39.1276H16.5964V39.163H16.6672V39.1984H16.7026V39.2335H16.7733V39.2689H16.8087V39.3043H16.8792V39.3397H16.9146V39.375H16.9854V39.4104H17.0561V39.4458H17.1269V39.4812H17.1974V39.5165H17.3035V39.5519H17.4097V39.5871H17.5156V39.6224H17.6924V39.6578H17.9045V39.6932H18.2583V39.7286H18.8238V39.6932H19.2481V39.6578H19.4955V39.6224H19.7076V39.5871H19.8845V39.5519H20.0614V39.5165H20.2026V39.4812H20.3439V39.4458H20.4854V39.4104H20.5916V39.375H20.6975V39.3397H20.839V39.3043H20.9451V39.2689H21.051V39.2335H21.1571V39.1984H21.2633V39.163H21.334V39.1276H21.4399V39.0922H21.5461V39.0569H21.6168V39.0215H21.7227V38.9861H21.7935V38.9507H21.8996V38.9154H21.9704V38.88H22.0763V38.8448H22.147V38.8095H22.2178V38.7741H22.2885V38.7387H22.3947V38.7033H22.4652V38.6679H22.5359V38.6326H22.6067V38.5972H22.6774V38.5618H22.748V38.5264H22.8187V38.4913H22.9249V38.4559H22.9956V38.4205H23.0664V38.3852H23.1369V38.3498H23.2076V38.3144H23.243V38.279H23.3138V38.2436H23.3845V38.2083H23.4551V38.1729H23.5258V38.1377H23.5966V38.1024H23.6673V38.067H23.7381V38.0316H23.7734V37.9962H23.844V37.9609H23.9147V37.9255H23.9855V37.8901H24.0562V37.8547H24.0916V37.8193H24.1621V37.7842H24.2329V37.7488H24.3036V37.7134H24.339V37.6781H24.4098V37.6427H24.4805V37.6073H24.5157V37.5719H24.5864V37.5366H24.6572V37.5012H24.6926V37.4658H24.7633V37.4307H24.8341V37.3953H24.8692V37.3599H24.94V37.3245H24.9754V37.2891H25.0461V37.2538H25.1169V37.2184H25.1522V37.183H25.2228V37.1476H25.2581V37.1123H25.3289V37.0771H25.3997V37.0417H25.435V37.0064H25.5058V36.971H25.5409V36.9356H25.6117V36.9002H25.6471V36.8649H25.7178V36.8295H25.7532V36.7941H25.824V36.7589H25.8593V36.7236H25.9299V36.6882H25.9652V36.6528H26.036V36.6174H26.0714V36.5821H26.1421V36.5467H26.1775V36.5113H26.2129V36.4759H26.2834V36.4406H26.3188V36.4054H26.3895V36.37H26.4249V36.3347H26.4957V36.2993H26.531V36.2639H26.6016V36.2285H26.6369V36.1931H26.6723V36.1578H26.7431V36.1224H26.7785V36.087H26.8138V36.0519H26.8846V36.0165H26.92V35.9811H26.9905V35.9457H27.0259V35.9104H27.0612V35.875H27.132V35.8396H27.1674V35.8042H27.2028V35.7688H27.2735V35.7335H27.3087V35.6983H27.3794V35.6629H27.4148V35.6276H27.4502V35.5922H27.5209V35.5568H27.5563V35.5214H27.5917V35.4861H27.6622V35.4507H27.6976V35.4153H27.733V35.3799H27.7683V35.3448H27.8391V35.3094H27.8745V35.274H27.9098V35.2386H27.9806V35.2033H28.0157V35.1679H28.0511V35.1325H28.1219V35.0971H28.1573V35.0618H28.1926V35.0264H28.228V34.9912H28.2988V34.9559H28.3339V34.9205H28.3693V34.8851H28.44V34.8497H28.4754V34.8143H28.5108V34.779H28.5462V34.7436H28.6169V34.7082H28.6523V34.6728H28.6875V34.6377H28.7228V34.6023H28.7936V34.5669H28.829V34.5316H28.8643V34.4962H28.8997V34.4608H28.9705V34.4254H29.0059V34.39H29.041V34.3547H29.0764V34.3193H29.1117V34.2841H29.1825V34.2488H29.2179V34.2134H29.2533V34.178H29.2886V34.1426H29.3594V34.1073H29.3945V34.0719H29.4299V34.0365H29.4653V34.0011H29.5007V33.966H29.5714V33.9306H29.6068V33.8952H29.6422V33.8598H29.6776V33.8245H29.7129V33.7891H29.7835V33.7537H29.8188V33.7183H29.8542V33.683H29.8896V33.6476H29.925V33.6124H29.9604V33.5771H30.0311V33.5417H30.0665V33.5063H30.1016V33.4709H30.137V33.4356H30.1724V33.4002H30.2078V33.3648H30.2785V33.3294H30.3139V33.294H30.3493V33.2589H30.3846V33.2235H30.42V33.1881H30.4552V33.1528H30.4905V33.1174H30.5613V33.082H30.5967V33.0466H30.6321V33.0113H30.6674V32.9759H30.7028V32.9405H30.7382V32.9054H30.7736V32.87H30.8087V32.8346H30.8441V32.7992H30.9148V32.7638H30.9502V32.7285H30.9856V32.6931H31.021V32.6577H31.0564V32.6223H31.0917V32.587H31.1269V32.5518H31.1623V32.5164H31.1976V32.4811H31.233V32.4457H31.2684V32.4103H31.3038V32.3749H31.3391V32.3395H31.3745V32.3042H31.4099V32.2688H31.4453V32.2334H31.4804V32.1983H31.5158V32.1629H31.5512V32.1275H31.5866V32.0921H31.6219V32.0568H31.6573V32.0214H31.6927V31.986H31.7281V31.9506H31.7634V31.9152H31.7988V31.8799H31.834V31.8447H31.8693V31.8093H31.9047V31.774H31.9401V31.7386H31.9755V31.7032H32.0109V31.6678H32.0462V31.6325H32.0816V31.5971H32.117V31.5617H32.1524V31.5263H32.1875V31.4558H32.2229V31.4204H32.2583V31.385H32.2936V31.3497H32.329V31.3143H32.3644V31.2789H32.3998V31.2435H32.4352V31.2082H32.4705V31.173H32.5059V31.1376H32.5411V31.0669H32.5764V31.0315H32.6118V30.9961H32.6472V30.9607H32.6826V30.9254H32.7179V30.89H32.7533V30.8195H32.7887V30.7841H32.8241V30.7487H32.8595V30.7133H32.8946V30.678H32.93V30.6426H32.9654V30.5718H33.0007V30.5364H33.0361V30.5011H33.0715V30.4659H33.1069V30.4305H33.1422V30.3598H33.1776V30.3244H33.213V30.289H33.2481V30.2183H33.2835V30.1829H33.3189V30.1475H33.3543V30.1124H33.3897V30.0416H33.425V30.0063H33.4604V29.9709H33.4958V29.9355H33.5312V29.8647H33.5665V29.8294H33.6017V29.794H33.6371V29.7235H33.6724V29.6881H33.7078V29.6527H33.7432V29.582H33.7786V29.5466H33.814V29.5112H33.8493V29.4404H33.8847V29.4053H33.9199V29.3345H33.9552V29.2992H33.9906V29.2638H34.026V29.193H34.0614V29.1577H34.0967V29.0869H34.1321V29.0518H34.1675V29.0164H34.2029V28.9456H34.2383V28.9102H34.2734V28.8395H34.3088V28.8041H34.3442V28.7334H34.3795V28.6982H34.4149V28.6275H34.4503V28.5921H34.4857V28.5213H34.521V28.4859H34.5564V28.4152H34.5918V28.38H34.6269V28.3093H34.6623V28.2385H34.6977V28.2032H34.7331V28.1324H34.7684V28.097H34.8038V28.0265H34.8392V27.9557H34.8746V27.9204H34.91V27.8496H34.9453V27.7789H34.9805V27.7435H35.0159V27.673H35.0512V27.6022H35.0866V27.5668H35.122V27.4961H35.1574V27.4253H35.1927V27.3546H35.2281V27.3194H35.2635V27.2487H35.2989V27.1779H35.334V27.1072H35.3694V27.0364H35.4048V26.9659H35.4402V26.8951H35.4755V26.8597H35.5109V26.789H35.5463V26.7182H35.5817V26.6475H35.6171V26.577H35.6524V26.5062H35.6876V26.4354H35.7229V26.3647H35.7583V26.2939H35.7937V26.2234H35.8291V26.1173H35.8645V26.0465H35.8998V25.9758H35.9352V25.9052H35.9706V25.8345H36.006V25.7637H36.0411V25.693H36.0765V25.5871H36.1119V25.5163H36.1472V25.4102H36.1826V25.3394H36.218V25.2335H36.2534V25.1628H36.2888V25.0566H36.3241V24.9859H36.3595V24.88H36.3947V24.8092H36.43V24.7031H36.4654V24.597H36.5008V24.4911H36.5362V24.3849H36.5715V24.2788H36.6069V24.1729H36.6423V24.0668H36.6777V23.9606H36.7128V23.8545H36.7482V23.7132H36.7836V23.5717H36.819V23.4658H36.8543V23.3243H36.8897V23.1828H36.9251V23.0415H36.9605V22.8646H36.9958V22.6877H37.0312V22.5111H37.0664V22.3342H37.1017V22.1224H37.1371V21.8394H37.1725V21.5566H37.2079V21.0969H37.2433V20.0011H37.2079V19.3292H37.1725V19.0466H37.1371V18.8346H37.1017V18.6223H37.0664V18.4105H37.0312V18.1983H36.9958V18.0214H36.9605V17.9153H36.9251V17.8094H36.8897V17.6678H36.8543V17.5617H36.819V17.4558H36.7836V17.3143H36.7482V17.2084H36.7128V17.1023H36.6777V16.9961H36.6423V16.9254H36.6069V16.8549H36.5715V16.7487H36.5362V16.678H36.5008V16.6072H36.4654V16.5365H36.43V16.4306H36.3947V16.3598H36.3595V16.2891H36.3241V16.2183H36.2888V16.1478H36.2534V16.077H36.218V16.0063H36.1826V15.9709H36.1472V15.9001H36.1119V15.8648H36.0765V15.7942H36.0411V15.7235H36.006V15.6881H35.9706V15.6173H35.9352V15.5466H35.8998V15.5112H35.8645V15.4407H35.8291V15.4053H35.7937V15.3346H35.7583V15.2992H35.7229V15.2638H35.6876V15.193H35.6524V15.1577H35.6171V15.1223H35.5817V15.0871H35.5463V15.0164H35.5109V14.981H35.4755V14.9456H35.4402V14.9103H35.4048V14.8395H35.3694V14.8041H35.334V14.7687H35.2989V14.7336H35.2635V14.6982H35.2281V14.6275H35.1927V14.5919H35.1574V14.5565H35.122V14.5211H35.0866V14.4857H35.0512V14.4503H35.0159V14.4152H34.9453V14.3798H34.91V14.3444H34.8746V14.3091H34.8392V14.2737H34.8038V14.2383H34.7684V14.2029H34.7331V14.1676H34.6977V14.1322H34.6623V14.0968H34.6269V14.0617H34.5918V14.0263H34.5564V13.9909H34.521V13.9555H34.4503V13.9201H34.4149V13.8848H34.3795V13.8494H34.3088V13.814H34.2734V13.7786H34.2383V13.7433H34.1675V13.7081H34.1321V13.6725H34.0967V13.6371H34.026V13.6018H33.9906V13.5664H33.9552V13.531H33.9199V13.4956H33.8493V13.4607H33.7786V13.4253H33.7432V13.39H33.6724V13.3548H33.6017V13.3194H33.5665V13.2838H33.4958V13.2484H33.4604V13.2131H33.3897V13.1777H33.3189V13.1423H33.2835V13.1069H33.213V13.0716H33.1422V13.0362H33.0715V13.001H33.0007V12.9657H32.93V12.93H32.8595V12.8947H32.7887V12.8593H32.7179V12.8239H32.6472V12.7885H32.5764V12.7532H32.5059V12.7182H32.4352V12.6829H32.329V12.6477H32.2583V12.6123H32.1524V12.577H32.0816V12.5414H31.9755V12.506H31.8693V12.4706H31.7988V12.4352H31.6927V12.3998H31.5866V12.3645H31.4804V12.3291H31.3745V12.2939H31.233V12.2586H31.1269V12.2232H31.021V12.1876H30.8795V12.1522H30.7382V12.1168H30.5967V12.0814H30.4198V12.0461H30.2785V12.0109H30.1016V11.9758H29.8896V11.9404H29.6776V11.905H29.4653V11.8696H29.1471V11.8343H28.829V11.7989H27.0966Z" fill="#7E7E7E"/>
<path d="M23.209 35.6965V35.7567H23.2391V35.6965H23.209ZM23.1789 35.7567V35.8168H23.209V35.7567H23.1789ZM23.1489 35.8168V35.877H23.1789V35.8168H23.1489ZM23.1188 35.9071V35.9671H23.1489V35.9071H23.1188ZM23.0887 35.9972V36.0573H23.1188V35.9972H23.0887ZM23.0586 36.1476V36.2078H23.0887V36.1476H23.0586ZM23.2391 35.6365V35.6965H23.2692V35.6363L23.2391 35.6365ZM23.4495 35.2456V35.3058H23.4796V35.2456H23.4495Z" fill="#D10010"/>
<path d="M23.4524 35.2765V35.3066H23.4223V35.3367H23.3922V35.3967H23.3621V35.4568H23.3321V35.4869H23.3022V35.5471H23.2721V35.6073H23.242V35.6672H23.2721V35.6372H23.3022V35.5772H23.3321V35.517H23.3621V35.4869H23.3922V35.4268H23.4223V35.3666H23.4524V35.3367H23.4825V35.2765H23.4524ZM23.2119 35.6672V35.7274H23.242V35.6973H23.2721V35.6672H23.2119Z" fill="#D10010"/>
</g>
<defs>
<clipPath id="clip0_12193_35651">
<rect x="-16.875" width="135" height="51" rx="3" fill="white"/>
</clipPath>
</defs>
</svg>
