<svg width="136" height="51" viewBox="0 0 136 51" fill="none" xmlns="http://www.w3.org/2000/svg">
<g clip-path="url(#clip0_12193_35663)">
<g clip-path="url(#clip1_12193_35663)">
<mask id="mask0_12193_35663" style="mask-type:luminance" maskUnits="userSpaceOnUse" x="32" y="14" width="76" height="16">
<path d="M32.6045 29.6839H107.645V14.6757H32.6045V29.6839Z" fill="white"/>
</mask>
<g mask="url(#mask0_12193_35663)">
<path d="M107.436 18.7099H105.795C105.506 18.7099 105.239 19.0029 105.236 19.0091L99.0036 27.7979C98.8865 27.9615 98.7018 27.9577 98.5908 27.7899L92.8356 19.0103C92.8324 19.0029 92.6187 18.7023 92.2159 18.7023H81.1613C80.9682 18.7023 80.8123 18.5344 80.8136 18.3274L80.8211 15.427C80.8211 15.0106 80.5079 14.6747 80.1241 14.6747H63.1924C60.5701 14.7701 59.4484 15.0527 58.2487 15.807C57.1426 16.5054 56.5905 17.3912 56.5905 18.4562C56.5905 19.5853 57.4461 20.6986 59.1579 21.797C59.5977 22.082 61.1822 22.9041 63.9073 24.2605C65.6194 25.1124 66.5428 25.8134 66.4762 26.5057C66.3723 27.6194 65.4325 28.0017 63.1924 28.0017H52.9551C52.7072 28.0017 52.505 27.9553 52.505 27.7469C52.505 27.6449 52.5616 27.5516 52.6685 27.4784L52.6666 27.4768C54.9588 25.9931 55.715 23.9885 55.715 22.1717C55.715 18.772 53.0601 14.6747 42.4901 14.6747H33.3002C32.9158 14.6747 32.6045 15.0106 32.6045 15.427V28.934C32.6045 29.3466 32.9158 29.6829 33.3013 29.6829H42.4901C42.8409 29.6829 43.1813 29.6783 43.5115 29.6689H66.4961C68.5954 29.6689 70.2351 29.295 71.4194 28.5506C72.5128 27.8577 73.0593 26.9812 73.0593 25.9098C73.0593 24.7855 72.2038 23.6742 70.4922 22.5768C70.0541 22.2926 68.4706 21.4649 65.7412 20.1023C64.0302 19.251 63.1746 18.5625 63.1746 18.0364C63.1746 16.9081 64.2829 16.3612 66.4961 16.3612H74.2661C74.4586 16.3612 74.6145 16.528 74.6156 16.7344L74.6105 26.535C74.6105 27.9718 75.4934 29.6689 78.1691 29.6689H99.5258C100.032 29.6689 100.288 29.3167 100.288 29.3167L107.605 18.9592C107.605 18.9592 107.767 18.7099 107.436 18.7099ZM41.1098 28.0584H38.8474C38.6547 28.0584 38.4984 27.8905 38.4984 27.684V16.6692C38.4984 16.4626 38.6547 16.2944 38.8455 16.2944H41.1098C46.7069 16.2944 49.6758 18.772 49.6758 22.1717C49.6758 25.5862 46.6788 28.0584 41.1098 28.0584ZM92.3775 28.0987H82.5124C81.1395 28.0987 80.8123 27.6772 80.8123 26.535V20.6422C80.8123 20.4443 80.9577 20.2852 81.1367 20.2716H86.8653C87.0459 20.2852 87.2639 20.4022 87.3781 20.5508L92.522 27.8165C92.6233 27.9718 92.5622 28.0987 92.3775 28.0987Z" fill="#7D7D7D"/>
</g>
</g>
</g>
<defs>
<clipPath id="clip0_12193_35663">
<rect x="0.125" width="135" height="51" rx="3" fill="white"/>
</clipPath>
<clipPath id="clip1_12193_35663">
<rect width="75.0404" height="15.0081" fill="white" transform="translate(32.6045 14.6759)"/>
</clipPath>
</defs>
</svg>
