<svg width="102" height="39" viewBox="0 0 102 39" fill="none" xmlns="http://www.w3.org/2000/svg">
<g clip-path="url(#clip0_12193_35669)">
<path d="M51.1094 3C32.3405 3 17.125 10.3035 17.125 19.3124C17.125 28.3215 32.3405 35.6249 51.1094 35.6249C69.8783 35.6249 85.0938 28.3214 85.0938 19.3124C85.0938 10.3034 69.8783 3 51.1094 3ZM51.1094 33.0496C33.8219 33.0496 19.8077 26.8993 19.8077 19.3124C19.8077 11.7256 33.8221 5.57527 51.1094 5.57527C68.3968 5.57527 82.411 11.7256 82.411 19.3124C82.411 26.8993 68.3967 33.0496 51.1094 33.0496ZM46.8236 16.4506V13.8748H56.4109V16.4506H52.9594V24.75H50.2757V16.4506H46.8236ZM67.9836 13.8748V24.7502H65.301L60.4353 18.2762V24.7502H57.7526V13.8748H60.4352L65.3008 20.3488V13.8748H67.9836ZM34.1553 24.7502V13.8748H36.838L39.8185 18.2762L42.799 13.8748H45.4806V24.7502H42.799V18.5988L40.7642 21.6014H38.8728L36.838 18.5988V24.7502H34.1553Z" fill="#8C8C8C"/>
</g>
<defs>
<clipPath id="clip0_12193_35669">
<rect width="67.9688" height="32.625" fill="white" transform="translate(17.125 3)"/>
</clipPath>
</defs>
</svg>
