<svg width="25" height="24" viewBox="0 0 25 24" fill="none" xmlns="http://www.w3.org/2000/svg">
<g clip-path="url(#clip0_11986_36822)">
<path d="M21.3414 0H4.54141C2.55318 0 0.941406 1.61177 0.941406 3.6V20.4C0.941406 22.3882 2.55318 24 4.54141 24H21.3414C23.3296 24 24.9414 22.3882 24.9414 20.4V3.6C24.9414 1.61177 23.3296 0 21.3414 0Z" fill="#3B5998"/>
<path d="M14.3945 21.375V7.35938C14.3945 6.375 14.6758 5.71875 16.0352 5.71875H17.8164V2.76562C17.4883 2.71875 16.457 2.625 15.2383 2.625C12.707 2.625 10.9727 4.17188 10.9727 7.03125V21.375M17.6758 9.46875H8.06641V12.8438H17.2539" fill="white"/>
</g>
<defs>
<clipPath id="clip0_11986_36822">
<rect width="24" height="24" fill="white" transform="translate(0.941406)"/>
</clipPath>
</defs>
</svg>
