<svg width="25" height="24" viewBox="0 0 25 24" fill="none" xmlns="http://www.w3.org/2000/svg">
<g clip-path="url(#clip0_11986_36819)">
<path d="M7.02718 23.9151C5.59989 23.8502 4.82455 23.6127 4.30884 23.4115C3.62551 23.1455 3.13833 22.8288 2.62548 22.3166C2.11263 21.8045 1.79521 21.3173 1.53058 20.634C1.32943 20.1183 1.09191 19.3429 1.027 17.9157C0.955672 16.3728 0.941406 15.9099 0.941406 12.0011C0.941406 8.09225 0.957099 7.63004 1.02629 6.08577C1.0912 4.65848 1.33015 3.88457 1.52987 3.36743C1.79593 2.6841 2.11334 2.19693 2.62477 1.68336C3.13691 1.17122 3.62408 0.853092 4.30813 0.588463C4.82383 0.387315 5.59918 0.14979 7.02647 0.0848813C8.57002 0.0142658 9.03366 0 12.9411 0C16.8499 0 17.3121 0.0156923 18.8563 0.0848813C20.2836 0.14979 21.0576 0.388742 21.5747 0.588463C22.258 0.853092 22.7452 1.17122 23.258 1.68336C23.7709 2.1955 24.0869 2.68339 24.3529 3.36672C24.5541 3.88243 24.7916 4.65777 24.8565 6.08506C24.9271 7.62933 24.9414 8.09154 24.9414 12.0004C24.9414 15.9077 24.9271 16.3714 24.8565 17.9157C24.7916 19.3429 24.5527 20.1183 24.3529 20.634C24.0869 21.3173 23.7702 21.8045 23.258 22.3166C22.7459 22.8288 22.258 23.1455 21.5747 23.4115C21.059 23.6127 20.2836 23.8502 18.8563 23.9151C17.3135 23.9857 16.8499 24 12.9411 24C9.03366 24 8.57002 23.9864 7.02718 23.9151Z" fill="url(#paint0_radial_11986_36819)"/>
<path d="M7.02718 23.9151C5.59989 23.8502 4.82455 23.6127 4.30884 23.4115C3.62551 23.1455 3.13833 22.8288 2.62548 22.3166C2.11263 21.8045 1.79521 21.3173 1.53058 20.634C1.32943 20.1183 1.09191 19.3429 1.027 17.9157C0.955672 16.3728 0.941406 15.9099 0.941406 12.0011C0.941406 8.09225 0.957099 7.63004 1.02629 6.08577C1.0912 4.65848 1.33015 3.88457 1.52987 3.36743C1.79593 2.6841 2.11334 2.19693 2.62477 1.68336C3.13691 1.17122 3.62408 0.853092 4.30813 0.588463C4.82383 0.387315 5.59918 0.14979 7.02647 0.0848813C8.57002 0.0142658 9.03366 0 12.9411 0C16.8499 0 17.3121 0.0156923 18.8563 0.0848813C20.2836 0.14979 21.0576 0.388742 21.5747 0.588463C22.258 0.853092 22.7452 1.17122 23.258 1.68336C23.7709 2.1955 24.0869 2.68339 24.3529 3.36672C24.5541 3.88243 24.7916 4.65777 24.8565 6.08506C24.9271 7.62933 24.9414 8.09154 24.9414 12.0004C24.9414 15.9077 24.9271 16.3714 24.8565 17.9157C24.7916 19.3429 24.5527 20.1183 24.3529 20.634C24.0869 21.3173 23.7702 21.8045 23.258 22.3166C22.7459 22.8288 22.258 23.1455 21.5747 23.4115C21.059 23.6127 20.2836 23.8502 18.8563 23.9151C17.3135 23.9857 16.8499 24 12.9411 24C9.03366 24 8.57002 23.9864 7.02718 23.9151Z" fill="url(#paint1_radial_11986_36819)"/>
<path d="M9.99435 12.0511C9.99435 10.4098 11.3246 9.07884 12.9659 9.07884C14.6073 9.07884 15.9382 10.4098 15.9382 12.0511C15.9382 13.6925 14.6073 15.0234 12.9659 15.0234C11.3246 15.0234 9.99435 13.6925 9.99435 12.0511ZM8.38759 12.0511C8.38759 14.5797 10.4373 16.6294 12.9659 16.6294C15.4945 16.6294 17.5442 14.5797 17.5442 12.0511C17.5442 9.5225 15.4945 7.4728 12.9659 7.4728C10.4373 7.4728 8.38767 9.52236 8.38767 12.0511M16.6556 7.29127C16.6555 7.50288 16.7182 7.70977 16.8357 7.88576C16.9532 8.06176 17.1202 8.19896 17.3157 8.28002C17.5112 8.36108 17.7263 8.38235 17.9338 8.34115C18.1414 8.29995 18.3321 8.19813 18.4818 8.04855C18.6315 7.89898 18.7335 7.70838 18.7748 7.50085C18.8162 7.29332 18.7951 7.07818 18.7142 6.88265C18.6333 6.68711 18.4962 6.51995 18.3203 6.40232C18.1444 6.28468 17.9376 6.22185 17.726 6.22176H17.7255C17.4419 6.2219 17.1699 6.3346 16.9693 6.53513C16.7687 6.73566 16.6558 7.00762 16.6556 7.29127ZM9.3638 19.3087C8.49452 19.2691 8.02203 19.1243 7.70804 19.002C7.29177 18.8399 6.99476 18.6469 6.68248 18.335C6.3702 18.0232 6.1769 17.7265 6.01555 17.3102C5.89315 16.9963 5.74836 16.5237 5.70884 15.6544C5.66562 14.7146 5.65698 14.4323 5.65698 12.0513C5.65698 9.67023 5.66633 9.38869 5.70884 8.44808C5.74843 7.57879 5.8943 7.1071 6.01555 6.79232C6.17761 6.37605 6.37063 6.07903 6.68248 5.76676C6.99433 5.45448 7.29106 5.26118 7.70804 5.09983C8.02189 4.97743 8.49452 4.83264 9.3638 4.79312C10.3036 4.74989 10.5859 4.74126 12.9659 4.74126C15.3459 4.74126 15.6285 4.75046 16.5691 4.79326C17.4384 4.83285 17.9101 4.97872 18.2248 5.09998C18.6411 5.26132 18.9381 5.45505 19.2504 5.7669C19.5627 6.07875 19.7553 6.37619 19.9173 6.79247C20.0397 7.10631 20.1845 7.57894 20.224 8.44822C20.2673 9.38883 20.2759 9.67037 20.2759 12.0514C20.2759 14.4324 20.2673 14.714 20.224 15.6546C20.1844 16.5239 20.0389 16.9963 19.9173 17.3103C19.7553 17.7266 19.5622 18.0236 19.2504 18.3352C18.9385 18.6467 18.6411 18.84 18.2248 19.0021C17.911 19.1245 17.4384 19.2693 16.5691 19.3088C15.6292 19.352 15.3469 19.3607 12.9659 19.3607C10.5849 19.3607 10.3033 19.352 9.3638 19.3088M9.28997 3.18901C8.3408 3.23223 7.69221 3.38273 7.12579 3.60314C6.53954 3.83075 6.04259 4.13611 5.54635 4.63156C5.05012 5.12701 4.74555 5.62403 4.51794 6.21099C4.29753 6.77777 4.14703 7.42601 4.1038 8.37518C4.05986 9.32585 4.0498 9.62978 4.0498 12.0511C4.0498 14.4724 4.05986 14.7764 4.1038 15.727C4.14703 16.6763 4.29753 17.3244 4.51794 17.8912C4.74555 18.4775 5.05019 18.9754 5.54635 19.4707C6.04252 19.9659 6.53882 20.2708 7.12579 20.4991C7.69328 20.7195 8.3408 20.87 9.28997 20.9132C10.2411 20.9564 10.5446 20.9672 12.9659 20.9672C15.3872 20.9672 15.6912 20.9572 16.6418 20.9132C17.5911 20.87 18.2392 20.7195 18.806 20.4991C19.3923 20.2708 19.8892 19.9661 20.3855 19.4707C20.8817 18.9752 21.1856 18.4775 21.4139 17.8912C21.6343 17.3244 21.7855 16.6762 21.828 15.727C21.8712 14.7757 21.8813 14.4724 21.8813 12.0511C21.8813 9.62978 21.8712 9.32585 21.828 8.37518C21.7848 7.42594 21.6343 6.77741 21.4139 6.21099C21.1856 5.62474 20.8809 5.12779 20.3855 4.63156C19.89 4.13532 19.3923 3.83075 18.8067 3.60314C18.2392 3.38273 17.591 3.23152 16.6425 3.18901C15.6917 3.14557 15.3879 3.13501 12.967 3.13501C10.546 3.13501 10.2415 3.14507 9.29033 3.18901" fill="white"/>
</g>
<defs>
<radialGradient id="paint0_radial_11986_36819" cx="0" cy="0" r="1" gradientUnits="userSpaceOnUse" gradientTransform="translate(2.49466 23.4742) scale(30.4711)">
<stop offset="0.09" stop-color="#FA8F21"/>
<stop offset="0.78" stop-color="#D82D7E"/>
</radialGradient>
<radialGradient id="paint1_radial_11986_36819" cx="0" cy="0" r="1" gradientUnits="userSpaceOnUse" gradientTransform="translate(17.5654 22.7036) scale(26.8148)">
<stop offset="0.64" stop-color="#8C3AAA" stop-opacity="0"/>
<stop offset="1" stop-color="#8C3AAA"/>
</radialGradient>
<clipPath id="clip0_11986_36819">
<rect width="24" height="24" fill="white" transform="translate(0.941406)"/>
</clipPath>
</defs>
</svg>
