<svg width="25" height="24" viewBox="0 0 25 24" fill="none" xmlns="http://www.w3.org/2000/svg">
<g clip-path="url(#clip0_11986_36820)">
<path d="M21.3414 0H4.54141C2.55318 0 0.941406 1.61177 0.941406 3.6V20.4C0.941406 22.3882 2.55318 24 4.54141 24H21.3414C23.3296 24 24.9414 22.3882 24.9414 20.4V3.6C24.9414 1.61177 23.3296 0 21.3414 0Z" fill="#1DA1F2"/>
<path d="M21.4258 7.12501C20.8633 7.40626 20.207 7.59376 19.5508 7.68751C20.2539 7.26563 20.7695 6.60938 21.0508 5.81251C20.3945 6.18751 19.6914 6.46876 18.9414 6.60938C18.4313 6.08693 17.7655 5.744 17.044 5.63206C16.3224 5.52012 15.584 5.64521 14.9396 5.98855C14.2952 6.33189 13.7795 6.87497 13.4699 7.53628C13.1603 8.19759 13.0736 8.94146 13.2227 9.65626C10.5977 9.51563 8.06641 8.29688 6.42578 6.18751C6.20254 6.54407 6.05209 6.94129 5.9831 7.35627C5.91411 7.77125 5.92795 8.19578 6.02381 8.60539C6.11968 9.015 6.29568 9.40158 6.54166 9.74284C6.78764 10.0841 7.09875 10.3733 7.45703 10.5938C6.94141 10.5938 6.42578 10.5 5.95703 10.2656C6.00391 11.8125 7.08203 13.1719 8.58203 13.5C8.11328 13.6406 7.59766 13.6406 7.08203 13.5469C7.55078 14.9063 8.81641 15.8438 10.2227 15.8906C8.86328 17.0156 7.03516 17.5313 5.30078 17.25C6.75012 18.2171 8.44135 18.759 10.1829 18.8142C11.9244 18.8694 13.6465 18.4358 15.1542 17.5624C16.6619 16.689 17.8948 15.4108 18.7133 13.8726C19.5318 12.3344 19.9031 10.5978 19.7852 8.85938C20.4414 8.39063 21.0039 7.82813 21.4258 7.12501Z" fill="white"/>
</g>
<defs>
<clipPath id="clip0_11986_36820">
<rect width="24" height="24" fill="white" transform="translate(0.941406)"/>
</clipPath>
</defs>
</svg>
