<svg width="25" height="24" viewBox="0 0 25 24" fill="none" xmlns="http://www.w3.org/2000/svg">
<g clip-path="url(#clip0_11986_36821)">
<path d="M21.3414 0H4.54141C2.55318 0 0.941406 1.61177 0.941406 3.6V20.4C0.941406 22.3882 2.55318 24 4.54141 24H21.3414C23.3296 24 24.9414 22.3882 24.9414 20.4V3.6C24.9414 1.61177 23.3296 0 21.3414 0Z" fill="#ED1D24"/>
<path d="M20.9573 7.92186C20.7698 7.21874 20.1604 6.65624 19.4573 6.46874C17.8635 6.04686 8.25414 5.99999 6.42601 6.46874C5.72289 6.65624 5.11351 7.21874 4.92601 7.92186C4.50414 9.70311 4.45726 14.25 4.92601 16.0781C5.11351 16.7812 5.72289 17.3437 6.42601 17.5312C8.11351 18 17.7229 18 19.4573 17.5312C20.1604 17.3437 20.7698 16.7812 20.9573 16.0781C21.3791 14.3906 21.3791 9.65624 20.9573 7.92186Z" fill="white"/>
<path d="M11.2539 9.51562V14.4844L15.6133 12" fill="#ED1D24"/>
</g>
<defs>
<clipPath id="clip0_11986_36821">
<rect width="24" height="24" fill="white" transform="translate(0.941406)"/>
</clipPath>
</defs>
</svg>
